/* XPM */
static char * back_xpm[] = {
"64 64 402 2",
"  	c #291900",
". 	c #000000",
"+ 	c #040404",
"@ 	c #777777",
"# 	c #7C7C7C",
"$ 	c #797979",
"% 	c #838383",
"& 	c #030303",
"* 	c #7B7B7B",
"= 	c #D4D4D4",
"- 	c #D8D8D8",
"; 	c #D2D2D2",
"> 	c #7F7F7F",
", 	c #777775",
"' 	c #DBDBDB",
") 	c #D4D5D7",
"! 	c #D1D5D6",
"~ 	c #D8DCDB",
"{ 	c #D0D2D1",
"] 	c #D7D7D7",
"^ 	c #D7D5D6",
"/ 	c #7D7B7C",
"( 	c #7E807D",
"_ 	c #D9DBDA",
": 	c #D2D3D5",
"< 	c #FBFFFF",
"[ 	c #F8FEFE",
"} 	c #F4F8F9",
"| 	c #D0D4D3",
"1 	c #D2D4D3",
"2 	c #D5D5D5",
"3 	c #7D7D7D",
"4 	c #7D7F7E",
"5 	c #D3D5D4",
"6 	c #CDD1D2",
"7 	c #F9FEFF",
"8 	c #F3FBFD",
"9 	c #F7FFFF",
"0 	c #F5FFFF",
"a 	c #F3FDFE",
"b 	c #F9FFFF",
"c 	c #D0D4D5",
"d 	c #D1D1D1",
"e 	c #7E7E7E",
"f 	c #1B0F00",
"g 	c #797B7A",
"h 	c #D4D8D9",
"i 	c #F8FDFF",
"j 	c #F6FEFF",
"k 	c #F2FDFF",
"l 	c #EEF8F9",
"m 	c #D9D9D9",
"n 	c #7A7A7A",
"o 	c #201300",
"p 	c #020202",
"q 	c #3E3E3E",
"r 	c #D7D9D8",
"s 	c #D2D6D7",
"t 	c #F5FAFD",
"u 	c #F6FFFF",
"v 	c #EFFAFC",
"w 	c #F2FFFF",
"x 	c #F0FCFC",
"y 	c #F4FEFF",
"z 	c #D3D3D3",
"A 	c #393939",
"B 	c #050505",
"C 	c #261700",
"D 	c #404040",
"E 	c #CFCFCF",
"F 	c #F2FCFD",
"G 	c #F3FDFF",
"H 	c #F8FFFF",
"I 	c #F1FBFC",
"J 	c #F4FFFF",
"K 	c #D6D6D6",
"L 	c #DADADA",
"M 	c #3F3F3F",
"N 	c #281900",
"O 	c #3D3D3D",
"P 	c #C2C2C0",
"Q 	c #D1D1CF",
"R 	c #D2D6D5",
"S 	c #F6FCFA",
"T 	c #F6FBFE",
"U 	c #F4FCFE",
"V 	c #F1FAF9",
"W 	c #F5FEFD",
"X 	c #D3D9D9",
"Y 	c #BCBCBC",
"Z 	c #414141",
"` 	c #C1C0BE",
" .	c #BBBBB9",
"..	c #D8DAD7",
"+.	c #CCD2D0",
"@.	c #F8FCFF",
"#.	c #BCC0C3",
"$.	c #B6BBBE",
"%.	c #B7BDBD",
"&.	c #D0D6D6",
"*.	c #C0C0C0",
"=.	c #BBBBBB",
"-.	c #444444",
";.	c #C1C1C1",
">.	c #BEBEBE",
",.	c #BFBFBF",
"'.	c #BABABA",
").	c #BDBDBD",
"!.	c #BEBCBD",
"~.	c #7C7A7B",
"{.	c #020001",
"].	c #787878",
"^.	c #B9B9B9",
"/.	c #010101",
"(.	c #757575",
"_.	c #828282",
":.	c #454545",
"<.	c #434343",
"[.	c #3B3B3B",
"}.	c #4A4A4A",
"|.	c #3C3C3C",
"1.	c #291901",
"2.	c #000100",
"3.	c #030504",
"4.	c #F9FBFA",
"5.	c #FEFFFF",
"6.	c #010302",
"7.	c #BABCBB",
"8.	c #BFC1C0",
"9.	c #F9FDFC",
"0.	c #B9BDBC",
"a.	c #000201",
"b.	c #020403",
"c.	c #424041",
"d.	c #B7BDBB",
"e.	c #F7FFFD",
"f.	c #BCBEBB",
"g.	c #B8B8B8",
"h.	c #020204",
"i.	c #FAFEFF",
"j.	c #000304",
"k.	c #767877",
"l.	c #000302",
"m.	c #B7B9B8",
"n.	c #424242",
"o.	c #C4C4C4",
"p.	c #3E3C3D",
"q.	c #BEC0BF",
"r.	c #F9FFFD",
"s.	c #797B78",
"t.	c #797977",
"u.	c #C2C2C2",
"v.	c #060405",
"w.	c #777779",
"x.	c #000002",
"y.	c #080808",
"z.	c #291A02",
"A.	c #808281",
"B.	c #FAFCFB",
"C.	c #7B7F7E",
"D.	c #807E7F",
"E.	c #777978",
"F.	c #040807",
"G.	c #F7FDFB",
"H.	c #7B7D7A",
"I.	c #010000",
"J.	c #040203",
"K.	c #020305",
"L.	c #F7FBFC",
"M.	c #FCFFFF",
"N.	c #050706",
"O.	c #060606",
"P.	c #B9BBBA",
"Q.	c #040605",
"R.	c #7A7C79",
"S.	c #BCBABB",
"T.	c #FFFEFF",
"U.	c #040406",
"V.	c #030305",
"W.	c #F4FAF8",
"X.	c #BBBDBC",
"Y.	c #787677",
"Z.	c #FCFAFB",
"`.	c #000200",
" +	c #020806",
".+	c #787C7B",
"++	c #0A0A0A",
"@+	c #FEFEFE",
"#+	c #FFFFFF",
"$+	c #737776",
"%+	c #FCFCFC",
"&+	c #FFFFFD",
"*+	c #808080",
"=+	c #7A7879",
"-+	c #FEFFFD",
";+	c #FDFFFC",
">+	c #020401",
",+	c #010002",
"'+	c #3E3C41",
")+	c #39443E",
"!+	c #040003",
"~+	c #FBFBFB",
"{+	c #767676",
"]+	c #000300",
"^+	c #000109",
"/+	c #000104",
"(+	c #FDFCFA",
"_+	c #F9FFF3",
":+	c #000307",
"<+	c #0E0500",
"[+	c #000504",
"}+	c #060300",
"|+	c #150900",
"1+	c #0A0200",
"2+	c #424638",
"3+	c #4F3C3E",
"4+	c #030207",
"5+	c #FCFDFF",
"6+	c #C3C3C3",
"7+	c #B5BDBF",
"8+	c #CCBBC3",
"9+	c #120000",
"0+	c #000509",
"a+	c #000007",
"b+	c #0B0000",
"c+	c #0A0000",
"d+	c #7A261B",
"e+	c #793319",
"f+	c #7C1F10",
"g+	c #793021",
"h+	c #1D1200",
"i+	c #42414C",
"j+	c #42373B",
"k+	c #060004",
"l+	c #030000",
"m+	c #F9FFFA",
"n+	c #FDFDFD",
"o+	c #7E7576",
"p+	c #000603",
"q+	c #000400",
"r+	c #010200",
"s+	c #7F3615",
"t+	c #AA3A22",
"u+	c #060002",
"v+	c #7E2209",
"w+	c #873012",
"x+	c #74270D",
"y+	c #0C0100",
"z+	c #231500",
"A+	c #38352A",
"B+	c #344046",
"C+	c #000900",
"D+	c #F9F9F9",
"E+	c #000500",
"F+	c #722F15",
"G+	c #A44735",
"H+	c #010300",
"I+	c #00000E",
"J+	c #030800",
"K+	c #130600",
"L+	c #261600",
"M+	c #150E00",
"N+	c #0A0100",
"O+	c #01000A",
"P+	c #040000",
"Q+	c #FFFFF4",
"R+	c #FAFAFA",
"S+	c #722714",
"T+	c #A04C27",
"U+	c #A24E36",
"V+	c #A84815",
"W+	c #A84621",
"X+	c #752313",
"Y+	c #120500",
"Z+	c #251700",
"`+	c #642415",
" @	c #7C2810",
".@	c #03010E",
"+@	c #0B000B",
"@@	c #000700",
"#@	c #892817",
"$@	c #753205",
"%@	c #792618",
"&@	c #802715",
"*@	c #82301A",
"=@	c #130300",
"-@	c #160C05",
";@	c #241503",
">@	c #682813",
",@	c #080100",
"'@	c #030300",
")@	c #040002",
"!@	c #832317",
"~@	c #020200",
"{@	c #841D1E",
"]@	c #792407",
"^@	c #832712",
"/@	c #792E07",
"(@	c #6D2A1A",
"_@	c #0E0A00",
":@	c #1F1200",
"<@	c #0D0903",
"[@	c #0A0300",
"}@	c #000600",
"|@	c #7C2D20",
"1@	c #76290B",
"2@	c #050004",
"3@	c #060005",
"4@	c #000102",
"5@	c #171000",
"6@	c #060701",
"7@	c #7D2A1C",
"8@	c #7E2409",
"9@	c #7C2B0E",
"0@	c #020400",
"a@	c #882923",
"b@	c #84260C",
"c@	c #7E2924",
"d@	c #060000",
"e@	c #383838",
"f@	c #080000",
"g@	c #030002",
"h@	c #3B4133",
"i@	c #070209",
"j@	c #403F44",
"k@	c #3A4036",
"l@	c #3D3B3E",
"m@	c #3F3D42",
"n@	c #778377",
"o@	c #727C71",
"p@	c #010004",
"q@	c #020006",
"r@	c #857D8A",
"s@	c #767779",
"t@	c #343434",
"u@	c #7A7C77",
"v@	c #837A7F",
"w@	c #86707D",
"x@	c #7F7C83",
"y@	c #090408",
"z@	c #7E7771",
"A@	c #7B797A",
"B@	c #817D7C",
"C@	c #090400",
"D@	c #000205",
"E@	c #7A2C18",
"F@	c #7F2E1D",
"G@	c #000B01",
"H@	c #070009",
"I@	c #797880",
"J@	c #75787F",
"K@	c #6D7C75",
"L@	c #190000",
"M@	c #A14554",
"N@	c #9B461D",
"O@	c #80321E",
"P@	c #73311B",
"Q@	c #8E2007",
"R@	c #7C2311",
"S@	c #887A8B",
"T@	c #727F78",
"U@	c #7B7170",
"V@	c #7F7E83",
"W@	c #7B8378",
"X@	c #000B00",
"Y@	c #030400",
"Z@	c #040900",
"`@	c #040600",
" #	c #040507",
".#	c #000012",
"+#	c #708076",
"@#	c #80757D",
"##	c #7F7F7D",
"$#	c #080009",
"%#	c #140000",
"&#	c #070004",
"*#	c #090506",
"=#	c #0D0600",
"-#	c #110800",
";#	c #140B01",
">#	c #AB4730",
",#	c #000800",
"'#	c #0F0019",
")#	c #7C2617",
"!#	c #090100",
"~#	c #A5462A",
"{#	c #9A5021",
"]#	c #A74B24",
"^#	c #9E4B2B",
"/#	c #783017",
"(#	c #7B1E0F",
"_#	c #000D00",
":#	c #312414",
"<#	c #09020D",
"[#	c #9C491F",
"}#	c #A34E29",
"|#	c #AE432F",
"1#	c #9C4E20",
"2#	c #80231B",
"3#	c #070400",
"4#	c #010007",
"5#	c #080300",
"                                                                                                                                ",
"                                                                                                                                ",
"                                                                                                                                ",
"                                                                                                                                ",
"                                                                                                                                ",
"                                                . . . . +                                                                       ",
"                                            . . @ # $ % $ . .                                                                   ",
"                                          & $ * = - = ; = * > .                                                                 ",
"                                        . , ' = ) ! ! ~ { ] ^ / .                                                               ",
"                                      . ( _ { : < [ [ < } | 1 2 3 .                                                             ",
"                                    . 4 5 6 < 7 8 9 0 a b b < c d e &                                                         f ",
"                                    . g h i b j k 9 9 0 0 l a j m n &                                                         o ",
"                                  p q r s t j 0 u v 0 w x 9 y 9 z = A B                                                       C ",
"                                  . D E r [ b F G H I J J a 9 j K L M .                                                       N ",
"                                  . O P Q R S H 7 T U b b V W X z Y M .                                                         ",
"                                  p Z `  ...+.b @.#.$.%.W < &.s *.=.-..                                                         ",
"                                    . e *.Y ;.=.>.,.'.).*.).>.Y !.~.{.                                                          ",
"                                  + . # ].^.* # . . B . /.@ > '.e (./.+                                                         ",
"                                  . p . _.* * + & . . B . p e 3 (.B . .                                                         ",
"                                  & . . . # . . . . :.. /.p . @ . + + .                                                         ",
"                                    & . . . & /./.O O <./.& . + p . .                                                           ",
"                                      & p O [.. p Z q O . . O M . p                                                             ",
"                                        . A }.. . <.>.|.p /.D D p     . p & /.                                                1.",
"                                  . . . /.+ . . B ].D 3 . + . . 2.2.2.3.4.5.2.6.                                                ",
"                                . =.;.7.8.9.0.a.b.[.M c.. 6.d.e.f. .,.g.h.i.j j..                                               ",
"                            /.. * + =.k.g 4.l.0.m.n.o.p.^.q.2.r.s.t.u.v.w.x.b U 2.y.                                          z.",
"                            p D . . . ,.A.B.2.C.b.* A D.+ E.F.G.H.*.. I.J.x.K.L.M.2.N.                                        1.",
"                          O.. M . ,./.*.k.P.Q.2.2.n.O <.. 2.2.0.R.).& S.I.T.U.V.G.W.2.3.                                        ",
"                          . [.n.p ].$ + ).>.2.X.L A *.O - ).3.X.X./.e Y.{.T.Z.. `. +.+2.                                        ",
"                        . . -.[./.p . . + '.. e . e Z n /.# . ^.. . . ++. @+#++ 2.$+g /.                                        ",
"                        . D |.p . /.;.^./.. . . . <.q O . /.. + p >.>.. p %+&+. g *+].{.                                        ",
"                      . B O D . #+/.].3 n 3 . ,.*.|.Y -.=.>.p =+@ 3 * 2.-+-+;+>+n n / I.                                        ",
"                      ,+'+)+2.!+~+B . . p . ).n B {+-.* . e ,.. ]+^+V./+(+_+x.:+. <+[+}+                                        ",
"                    |+1+2+3+4+5+#+~+. ;.^.'.> # . . ^.. & # $ 6+7+8+9+0+a+b+c+d+e+f+g+2.                                        ",
"                    h+i+j+k+l+m+n+#+. . * e $ . . > M e . . $ @ o+p+q+r+s+t+]+u+v+w+x+y+                                        ",
"                    z+A+B+C+#+T.#+#+D+& . . /.p . Z n.. p %+O.p u+E+  u+F+G+I.H+I+]+J+K+                                        ",
"                    L+M+N+O+P+Q+@+%+#+. %+@+@+. <.g.D p R+B           ]+S+T+U+V+W+X+Y+                                          ",
"                    Z+`+ @.@+@C+#+@+. ,.+ #+/.. $ <.].& . *./.        @@#@$@%@&@*@=@-@                                          ",
"                    ;@>@,@'@)@!@. + n ,.. #+. D q O & . /.Y # .       ~@{@]@^@/@(@_@                                            ",
"                    :@<@[@}@|@1@/.. > =.. . p M ,.O . . p >.* .         2@@@3@4@1+                                              ",
"                    5@6@q+7@8@9@+ . # *.. :.|.3 M n Z O p '.].p                                                                 ",
"                      0@a@b@c@x.  . # '.+ . . M D D . . . ,.> .                                                                 ",
"                        ]+d@r+    . . * >.e $ # O @ *+3 Y $ + .                                                                 ",
"                                  . m . '.p + [.,.q . /.).& e@.                                                                 ",
"                                + D q . /.. B p =.& . . & . Z :.p                                                               ",
"                              f@q Z Z . p .   + . . = /.. . q |.|.&                                                             ",
"                            g@h@q [.. /.&       .         . & M Z |.&                                                           ",
"                          i@j@k@q p . . /..               B . /.q M |./.                                                        ",
"                          h.l@D m@n@o@p@q@E+            2.`.r@s@& t@n.&                                                         ",
"                          ,+2.u@v@w@x@. 2.`.          }@y@z@A@B@* y.. .                                                         ",
"                          P+C@`.q+D@`.E@F@P+        G@H@I@4 J@K@{+/./.                                                          ",
"                            L@M@N@O@P@Q@R@c+      P+2.S@T@U@V@W@. &                                                             ",
"                            `.X@Y@p@h.Z@`@ #    .#4+]++#@###]+$#/..                                                             ",
"                              %#&#*#=#-#;#      E+>#,#'#Y@E+'@)#p .                                                             ",
"                                                !#~#{#]#^#/#(#_#.                                                               ",
"                                        :#      <#[#}#|#1#2#3#4#/.                                                              ",
"                                                }+. /.. . p . &                                                                 ",
"                                                5#& . + . . &                                                                   ",
"                                                                                                                                ",
"                                                                                                                                ",
"                                                                                                                                ",
"                                                                                                                                ",
"                                                                                                                                ",
"                                                                                                                                "};
