/* XPM */
static char * left_xpm[] = {
"64 64 404 2",
"  	c #291900",
". 	c #000000",
"+ 	c #040404",
"@ 	c #060606",
"# 	c #070707",
"$ 	c #020202",
"% 	c #787878",
"& 	c #797979",
"* 	c #7A7A7A",
"= 	c #030303",
"- 	c #7C7C7C",
"; 	c #D3D3D3",
"> 	c #D8D8D8",
", 	c #D2D2D2",
"' 	c #DADADA",
") 	c #DBDBDB",
"! 	c #D1D1D1",
"~ 	c #7C7E7D",
"{ 	c #D6D8D7",
"] 	c #D6D6D6",
"^ 	c #D5D3D4",
"/ 	c #D4D2D3",
"( 	c #DBD9DA",
"_ 	c #939393",
": 	c #D4D4D4",
"< 	c #7B7B7B",
"[ 	c #050505",
"} 	c #7B7C7E",
"| 	c #FBFFFF",
"1 	c #F5FBFB",
"2 	c #D9DBDA",
"3 	c #D0D0D0",
"4 	c #929091",
"5 	c #939192",
"6 	c #8E8E8E",
"7 	c #CFCFCF",
"8 	c #D4D6D5",
"9 	c #D9D9D9",
"0 	c #000100",
"a 	c #737778",
"b 	c #F8FEFE",
"c 	c #F9FFFF",
"d 	c #F4FEFF",
"e 	c #FAFEFD",
"f 	c #CDD1D0",
"g 	c #7F8180",
"h 	c #959595",
"i 	c #8C8C8C",
"j 	c #D7D7D7",
"k 	c #DCDCDC",
"l 	c #CECECE",
"m 	c #D5D5D5",
"n 	c #909090",
"o 	c #000203",
"p 	c #7A8080",
"q 	c #F7FFFF",
"r 	c #F1FBFC",
"s 	c #F3FEFF",
"t 	c #F5FBF9",
"u 	c #D5DBD9",
"v 	c #787C7B",
"w 	c #8C8E8D",
"x 	c #929292",
"y 	c #8F8F8F",
"z 	c #797D7E",
"A 	c #F1F9FB",
"B 	c #F8FFFF",
"C 	c #F6FFFF",
"D 	c #CCD2D0",
"E 	c #7A7E7D",
"F 	c #7E807F",
"G 	c #949494",
"H 	c #000201",
"I 	c #F2F6F7",
"J 	c #F7FDFD",
"K 	c #7D8383",
"L 	c #787E7E",
"M 	c #767C7C",
"N 	c #797D7C",
"O 	c #D2D6D5",
"P 	c #D1D3D2",
"Q 	c #DDDDDD",
"R 	c #010302",
"S 	c #FEFFFF",
"T 	c #767877",
"U 	c #808080",
"V 	c #828081",
"W 	c #919191",
"X 	c #8D8D8D",
"Y 	c #989898",
"Z 	c #7A7C7B",
"` 	c #050503",
" .	c #010000",
"..	c #030000",
"+.	c #010101",
"@.	c #7A7879",
"#.	c #7C7A7B",
"$.	c #7F7F7F",
"%.	c #929493",
"&.	c #8E908F",
"*.	c #838383",
"=.	c #767676",
"-.	c #BABABA",
";.	c #8F9190",
">.	c #413F40",
",.	c #434343",
"'.	c #D3D5D4",
").	c #020001",
"!.	c #B9BBBA",
"~.	c #787A79",
"{.	c #FBFDFC",
"].	c #010504",
"^.	c #030504",
"/.	c #070908",
"(.	c #F7FBFA",
"_.	c #777777",
":.	c #BBBBBB",
"<.	c #F9FFFD",
"[.	c #7B7D7C",
"}.	c #000302",
"|.	c #BDBDBD",
"1.	c #777978",
"2.	c #F8FEFC",
"3.	c #F7FDFB",
"4.	c #000403",
"5.	c #7B797A",
"6.	c #7D7C7A",
"7.	c #000102",
"8.	c #F5FEFD",
"9.	c #F6FFFE",
"0.	c #000002",
"a.	c #7F7D7E",
"b.	c #999999",
"c.	c #C0C0C0",
"d.	c #040605",
"e.	c #FFFFFF",
"f.	c #C0C0BE",
"g.	c #BCBCBC",
"h.	c #BABCBB",
"i.	c #000606",
"j.	c #B8B8B8",
"k.	c #F9FBFA",
"l.	c #F9F9F9",
"m.	c #7A7C79",
"n.	c #EEF7F6",
"o.	c #868686",
"p.	c #FCFEFD",
"q.	c #D2D4D3",
"r.	c #030102",
"s.	c #D8DAD9",
"t.	c #BEC0BD",
"u.	c #000103",
"v.	c #030406",
"w.	c #C1C1C1",
"x.	c #D5D7D6",
"y.	c #020401",
"z.	c #757575",
"A.	c #0A0809",
"B.	c #BBBFC0",
"C.	c #BCC0C1",
"D.	c #040406",
"E.	c #C6C6C6",
"F.	c #BDBDBF",
"G.	c #BFC0C2",
"H.	c #050102",
"I.	c #6B695F",
"J.	c #000300",
"K.	c #BBBDB8",
"L.	c #BEBDC2",
"M.	c #C4B9BF",
"N.	c #000D00",
"O.	c #030009",
"P.	c #BBB9BA",
"Q.	c #7D7D7D",
"R.	c #BEBEBE",
"S.	c #B9C2BD",
"T.	c #B7BCB8",
"U.	c #000505",
"V.	c #080004",
"W.	c #070000",
"X.	c #6D695F",
"Y.	c #000202",
"Z.	c #BEBBC4",
"`.	c #BABBC0",
" +	c #C1C0BC",
".+	c #090600",
"++	c #7C2418",
"@+	c #000406",
"#+	c #04000C",
"$+	c #0A0006",
"%+	c #030007",
"&+	c #010103",
"*+	c #080000",
"=+	c #0C0201",
"-+	c #040600",
";+	c #622F1A",
">+	c #802B06",
",+	c #C3C3C3",
"'+	c #000107",
")+	c #000200",
"!+	c #83241E",
"~+	c #994F22",
"{+	c #9C4D26",
"]+	c #7F2817",
"^+	c #000600",
"/+	c #04000B",
"(+	c #00000B",
"_+	c #020605",
":+	c #020403",
"<+	c #010200",
"[+	c #C46E3B",
"}+	c #C77F33",
"|+	c #A24728",
"1+	c #A54D25",
"2+	c #914E24",
"3+	c #852820",
"4+	c #060500",
"5+	c #FFFEFF",
"6+	c #FEFFFA",
"7+	c #B1B5B4",
"8+	c #BCBEBD",
"9+	c #040000",
"0+	c #972115",
"a+	c #D16D39",
"b+	c #A84B22",
"c+	c #9F4522",
"d+	c #8E2C1F",
"e+	c #000500",
"f+	c #FFF2FC",
"g+	c #FAFFF8",
"h+	c #0C0000",
"i+	c #F4FFFA",
"j+	c #BEC2C1",
"k+	c #C1C3C2",
"l+	c #802719",
"m+	c #C47A3B",
"n+	c #C87239",
"o+	c #D27242",
"p+	c #832219",
"q+	c #000700",
"r+	c #F7FCF8",
"s+	c #F2FFFD",
"t+	c #FFFDFF",
"u+	c #010009",
"v+	c #F2FFFF",
"w+	c #F5FEFB",
"x+	c #B8BEBC",
"y+	c #3D3F3E",
"z+	c #404040",
"A+	c #787677",
"B+	c #120000",
"C+	c #693625",
"D+	c #762812",
"E+	c #84260C",
"F+	c #BD754F",
"G+	c #160000",
"H+	c #00030B",
"I+	c #F3FFFF",
"J+	c #FFFFF3",
"K+	c #010100",
"L+	c #FAFEFF",
"M+	c #3C3C3C",
"N+	c #444444",
"O+	c #030400",
"P+	c #0F0000",
"Q+	c #F5FCFF",
"R+	c #070206",
"S+	c #857F7F",
"T+	c #F7F9F8",
"U+	c #C0C2C1",
"V+	c #414141",
"W+	c #888F8B",
"X+	c #84787A",
"Y+	c #7F747A",
"Z+	c #77777F",
"`+	c #040809",
" @	c #030300",
".@	c #F8FCFB",
"+@	c #B7B9B8",
"@@	c #030208",
"#@	c #7B7575",
"$@	c #84807D",
"%@	c #3B4043",
"&@	c #384347",
"*@	c #BDC1C0",
"=@	c #070005",
"-@	c #81787B",
";@	c #42413D",
">@	c #3A403C",
",@	c #37423C",
"'@	c #000400",
")@	c #000105",
"!@	c #BABEBD",
"~@	c #060807",
"{@	c #43423D",
"]@	c #3C3D38",
"^@	c #040300",
"/@	c #080405",
"(@	c #F5F9FF",
"_@	c #B8BAB9",
":@	c #000905",
"<@	c #030200",
"[@	c #030408",
"}@	c #787679",
"|@	c #BDBFBE",
"1@	c #000007",
"2@	c #393C41",
"3@	c #3C4349",
"4@	c #010300",
"5@	c #F4FFFF",
"6@	c #403E3F",
"7@	c #000306",
"8@	c #010005",
"9@	c #F9FBF8",
"0@	c #BAC6BC",
"a@	c #BDBAC3",
"b@	c #000304",
"c@	c #3E402B",
"d@	c #75767A",
"e@	c #7F7E86",
"f@	c #718085",
"g@	c #434037",
"h@	c #772A0E",
"i@	c #7B2F0D",
"j@	c #000106",
"k@	c #060004",
"l@	c #070103",
"m@	c #BBB4BC",
"n@	c #040004",
"o@	c #414640",
"p@	c #3D4049",
"q@	c #483E3D",
"r@	c #3E3D43",
"s@	c #3F3534",
"t@	c #06000D",
"u@	c #702E0E",
"v@	c #7E2311",
"w@	c #040500",
"x@	c #964B21",
"y@	c #AD4925",
"z@	c #A44320",
"A@	c #A4492A",
"B@	c #70381F",
"C@	c #090100",
"D@	c #FAF8F9",
"E@	c #B8C5CD",
"F@	c #393931",
"G@	c #3E4241",
"H@	c #3F3734",
"I@	c #4A453F",
"J@	c #000501",
"K@	c #7A2B0A",
"L@	c #892D16",
"M@	c #722420",
"N@	c #060000",
"O@	c #190000",
"P@	c #A14554",
"Q@	c #AF452D",
"R@	c #A24C2B",
"S@	c #AE4C2F",
"T@	c #7C250A",
"U@	c #772414",
"V@	c #6D2926",
"W@	c #000502",
"X@	c #000702",
"Y@	c #000402",
"Z@	c #02060F",
"`@	c #812D09",
" #	c #7A290B",
".#	c #7A210F",
"+#	c #050500",
"@#	c #000E00",
"##	c #000504",
"$#	c #030002",
"%#	c #090502",
"&#	c #060100",
"*#	c #060007",
"=#	c #CA7139",
"-#	c #CF702E",
";#	c #D4733E",
">#	c #AF4626",
",#	c #A44726",
"'#	c #A74528",
")#	c #7B2B22",
"!#	c #110000",
"~#	c #000407",
"{#	c #000004",
"]#	c #0B0100",
"^#	c #040005",
"/#	c #C97338",
"(#	c #CB7334",
"_#	c #C8773F",
":#	c #9F5027",
"<#	c #A14425",
"[#	c #A04B2E",
"}#	c #A34E25",
"|#	c #0B0000",
"1#	c #040002",
"2#	c #010705",
"3#	c #09010E",
"4#	c #080204",
"5#	c #060400",
"6#	c #000005",
"7#	c #06000A",
"                                                                                                                                ",
"                                                                                                                                ",
"                                                                                                                                ",
"                                                                                                                                ",
"                                                                                                                                ",
"                                                                                                                                ",
"                                                                                                                                ",
"                                                                                                                                ",
"                                                                                                                                ",
"                                                                                                                                ",
"                                                                                                                                ",
"                                                                                                                                ",
"                                                                                                                                ",
"                                  . + @ . . #                                                                                   ",
"                              + $ % & & * * % $ +                                                                               ",
"                            = % - ; > , ' , ) ! % =                                                                             ",
"                          . ~ { ; ] ^ / ( _ _ { : < .                                                                           ",
"                        [ } | 1 2 : 3 4 5 6 7 8 > 9 6 $                                                                         ",
"                      0 a b c d e f g h i j k : l m _ n [                                                                       ",
"                      o p q r s t u v w _ m ! : ) , x y .                                                                       ",
"                    0 z | A B C | D E F 6 ' ! ' : m y G =                                                                       ",
"                    H I J K L M N O P < 6 ; Q 3 ; ] n n .                                                                       ",
"                    R S F 0 $ . T U ! V 4 ] m 8 : W X Y .                                                                       ",
"                    0 Z 0 `  ...+.- ^ @.#.W m { W y h .                                                                         ",
"                    = j , - . + . $.; - - 6 x x %.&.+.                                                                          ",
"                    . *., * $ . +., > : % @ y n 6 + .                                                                           ",
"                    +.=.] . + +.: : ] $.= . . = $ . -..                                                                         ",
"                      = x W ;.{ m m m = . + [ .  .>.,.+.+.                                                                      ",
"                    + & w '.{ P $ ; . . +.. @ . ). .$ !.~.=                                                                     ",
"                      = '.'.{.].. +.. . @ U . =  .. ^.0 0 /.                                                                    ",
"                      0 S H (.0 $ $ . @ . _.. +.+.:.0 <.<.0 @ + +                                                               ",
"                      0 [.0 }.H . . +.. < U +.. |.1.].2.3.4.0 :.% =                                                             ",
"                        .       0 # . 6 _ . +.5.6.).. 7.8.9.0.a.+.                                                              ",
"                                R . . b.X $ .  . . .c.7.B B 7.#.. [ +.                                                          ",
"                              d.0 e.$ 7 : . +  .f.g.h.i.q q o . = j.% .                                                         ",
"                            0 k.0 l.] , @ [ . #.m.% g 7.n.8.o $ j.o..                                                           ",
"                            d.p.q.9 j . . . [ r.0 d.0 o c 9.o -.|.% . = .                                                       ",
"                              0 s.; .          .t.-.|.u.1 1 v.5.U . . w.-.=                                                     ",
"                              $ x.. =           y.z.A.0.B.C.D. .. . E._..                                                       ",
"                                0 +               $  .F.G.0.0.H.$ |.& . +.                                                      ",
"                                              I.  J.K.L.M...N.O.P.Q.$ R.:..                                                     ",
"                                                   .S.T.U.V. .W.$ . . - .                                                       ",
"                                              X.Y.Z.`. +0 . .++++.. $ . .                                                       ",
"                                            @+#+$+%+&+*+=+-+;+>+0 d.. ,++.$                                                     ",
"                                        7.'+)+!+~+{+]+^+/+(+U.*+_+0 :+. j..                                                     ",
"                                        <+[+}+|+1+2+3+4+| 5+6+. <.7+8+G  ..                                                     ",
"                                        9+0+a+b+c+d+e+e.f+g+h+i+3.j+k+=.a.* .                                                   ",
"                                        7.l+m+n+o+p+q+r+s+t+u+v+w+x+y+z+A+$..                                                   ",
"                                        B+C+D+E+F+G+H+I+J+K+7.L+0 R . M+N+* [                                                   ",
"                                          )+0 O+P+<+Q+R+*+S+0.0 }.T+U+. V+.                                                     ",
"                                                W+  0.X+Y+Z+`+ @.@j++@$  .                                                      ",
"                                                  @@#@$@%@&@}.K+t *@0 . A.                                                      ",
"                                                =@-@;@>@,@'@0 )@(.!@~@                                                          ",
"                                                . {@]@0 ^@W./@(@j+_@.                                                           ",
"                                                :@0 <@[@}@W...q |@. .                                                           ",
"                                                1@*+W.2@3@4@0 5@-.+ 6@. +.0 4.0 +.. +.                                          ",
"                                                    Y.7@8@0.9@0@a@b@c@d@e@f@g@K+h@i@9+                                          ",
"                                                O.j@k@+.. l@5+m@n@o@p@q@r@s@0 t@u@v@w@                                          ",
"                                              )+x@y@z@A@B@C@D@E@)+F@G@H@I@J@(+K@L@M@N@                                          ",
"                                            O@P@Q@R@S@T@U@V@N@W@X@0.Y@Z@(+0.`@ #.#+#0                                           ",
"                                            )+@###$#)+9+%#'@&#0 *#N@=#-#;#>#,#'#)#e+).                                          ",
"                                              !#9+)+R+~#{#W.0 ]#^#/#(#_#:#<#[#}#|#}.e+                                          ",
"                                                                J.1#2#9+'+N@3#)+ .4#                                            ",
"                                                                  )@|# .5#6# .)+7#                                              "};
