/* XPM */
static char * profil_xpm[] = {
"64 64 506 2",
"  	c #291900",
". 	c #040404",
"+ 	c #000000",
"@ 	c #797979",
"# 	c #838383",
"$ 	c #7C7C7C",
"% 	c #777777",
"& 	c #010101",
"* 	c #7F7F7F",
"= 	c #7B7B7B",
"- 	c #D4D4D4",
"; 	c #D2D2D2",
"> 	c #D8D8D8",
", 	c #030303",
"' 	c #7D797A",
") 	c #D8D6D7",
"! 	c #D3D3D3",
"~ 	c #D6D8D7",
"{ 	c #D0D4D5",
"] 	c #D1D5D6",
"^ 	c #D4D4D2",
"/ 	c #D8D8D6",
"( 	c #787677",
"_ 	c #010000",
": 	c #808080",
"< 	c #D6D6D6",
"[ 	c #D5D7D6",
"} 	c #D2D6D7",
"| 	c #F1F7F7",
"1 	c #FBFFFF",
"2 	c #F6FCFC",
"3 	c #F8FEFE",
"4 	c #D3D5D4",
"5 	c #D0D2D1",
"6 	c #D7D7D7",
"7 	c #050505",
"8 	c #1E1202",
"9 	c #7E7E7E",
"0 	c #D1D1D1",
"a 	c #D5DBDB",
"b 	c #F4FDFC",
"c 	c #F9FFFF",
"d 	c #EFF9F8",
"e 	c #F4FEFF",
"f 	c #F6FEFF",
"g 	c #F2FAFC",
"h 	c #D4DADA",
"i 	c #CED2D3",
"j 	c #D4D5D7",
"k 	c #747474",
"l 	c #251700",
"m 	c #F5FEFD",
"n 	c #EEF8F7",
"o 	c #F7FFFF",
"p 	c #F2FEFE",
"q 	c #F4FFFF",
"r 	c #F0FAFB",
"s 	c #F8FFFF",
"t 	c #F1FBFC",
"u 	c #F1F9FB",
"v 	c #D8D9DB",
"w 	c #79797B",
"x 	c #281900",
"y 	c #F1FDFD",
"z 	c #F5FFFF",
"A 	c #F6FFFF",
"B 	c #F7FCFF",
"C 	c #D2D3D5",
"D 	c #D2D2D4",
"E 	c #D9D9D9",
"F 	c #7A7E7F",
"G 	c #747A7A",
"H 	c #EFF8F7",
"I 	c #F0FCFC",
"J 	c #F4F9FC",
"K 	c #787E7E",
"L 	c #747879",
"M 	c #767779",
"N 	c #DEDEDE",
"O 	c #787878",
"P 	c #767676",
"Q 	c #7D7D7D",
"R 	c #030504",
"S 	c #F5FBFB",
"T 	c #F6FFFE",
"U 	c #F0FAF9",
"V 	c #7E807F",
"W 	c #000100",
"X 	c #060606",
"Y 	c #717171",
"Z 	c #010302",
"` 	c #828282",
" .	c #030000",
"..	c #020001",
"+.	c #767A79",
"@.	c #737C7B",
"#.	c #030102",
"$.	c #000201",
"%.	c #808281",
"&.	c #FCFEFD",
"*.	c #757776",
"=.	c #020202",
"-.	c #FAFCFB",
";.	c #7B7D7C",
">.	c #D5D5D5",
",.	c #D7D9D8",
"'.	c #DADADA",
").	c #D1D3D2",
"!.	c #CFCFCF",
"~.	c #F9FBFA",
"{.	c #FEFFFF",
"].	c #090B0A",
"^.	c #797B7A",
"/.	c #CECECE",
"(.	c #F8FAF9",
"_.	c #7A7A7A",
":.	c #787A79",
"<.	c #020403",
"[.	c #7A7C7B",
"}.	c #FBFDFC",
"|.	c #C0C0C0",
"1.	c #B9B9B9",
"2.	c #929292",
"3.	c #757575",
"4.	c #939393",
"5.	c #F2FCFD",
"6.	c #8F8F8F",
"7.	c #080808",
"8.	c #000102",
"9.	c #F3FDFF",
"0.	c #070707",
"a.	c #F6F8F7",
"b.	c #F8FCFB",
"c.	c #050706",
"d.	c #000002",
"e.	c #000407",
"f.	c #FAFEFD",
"g.	c #BCBCBC",
"h.	c #B8B8B8",
"i.	c #D9DBDA",
"j.	c #BBBBBB",
"k.	c #BEBFC1",
"l.	c #060709",
"m.	c #FAFEFF",
"n.	c #BEBEBE",
"o.	c #CFD1D0",
"p.	c #D4D6D5",
"q.	c #D4D8D9",
"r.	c #727274",
"s.	c #010103",
"t.	c #C2C2C2",
"u.	c #BABABA",
"v.	c #BABCBB",
"w.	c #DDDFDE",
"x.	c #BFBFBF",
"y.	c #F5FDFF",
"z.	c #F3F9F9",
"A.	c #030708",
"B.	c #000103",
"C.	c #BDBDBD",
"D.	c #C1C1C1",
"E.	c #D0D0D0",
"F.	c #030305",
"G.	c #BFBFBD",
"H.	c #BBBBB9",
"I.	c #F3F7F8",
"J.	c #BDBBBE",
"K.	c #7C7C7A",
"L.	c #797977",
"M.	c #7E7E7C",
"N.	c #FFFEFF",
"O.	c #000104",
"P.	c #FCFFFF",
"Q.	c #000900",
"R.	c #030100",
"S.	c #000304",
"T.	c #090000",
"U.	c #6B685F",
"V.	c #000105",
"W.	c #0D0302",
"X.	c #030104",
"Y.	c #3D3D3D",
"Z.	c #6E8185",
"`.	c #BFBDC0",
" +	c #070000",
".+	c #060100",
"++	c #0A0000",
"@+	c #000503",
"#+	c #FFFCFF",
"$+	c #040000",
"%+	c #080206",
"&+	c #F6FAFD",
"*+	c #F3FFFF",
"=+	c #010200",
"-+	c #000400",
";+	c #AF473E",
">+	c #A14A36",
",+	c #83290F",
"'+	c #BEBCBF",
")+	c #BDBDBF",
"!+	c #C4C4C4",
"~+	c #7E7B74",
"{+	c #827676",
"]+	c #C2BDC1",
"^+	c #B6BFC4",
"/+	c #B4B7BE",
"(+	c #04090C",
"_+	c #F9FFFB",
":+	c #FFFBF2",
"<+	c #FCFFFD",
"[+	c #000200",
"}+	c #F7FFFD",
"|+	c #E8FBF5",
"1+	c #090300",
"2+	c #170E05",
"3+	c #000405",
"4+	c #AC492A",
"5+	c #AC4630",
"6+	c #A14722",
"7+	c #D1722E",
"8+	c #DB723B",
"9+	c #030200",
"0+	c #000207",
"a+	c #0F0504",
"b+	c #707A6F",
"c+	c #3E3E3E",
"d+	c #7A8080",
"e+	c #777B7C",
"f+	c #070304",
"g+	c #F7FEFF",
"h+	c #FCFEFF",
"i+	c #FCFDFF",
"j+	c #030207",
"k+	c #000206",
"l+	c #E3EAEA",
"m+	c #1E1104",
"n+	c #020307",
"o+	c #842008",
"p+	c #A34A22",
"q+	c #9A5325",
"r+	c #C47348",
"s+	c #672E10",
"t+	c #000704",
"u+	c #FAFAFA",
"v+	c #404040",
"w+	c #3B3B3B",
"x+	c #080000",
"y+	c #0B0001",
"z+	c #000004",
"A+	c #FFFFF1",
"B+	c #FFFEF1",
"C+	c #FFFEF2",
"D+	c #FEFFFA",
"E+	c #F9F8F4",
"F+	c #010504",
"G+	c #F7F6FA",
"H+	c #BFDDD9",
"I+	c #231401",
"J+	c #322517",
"K+	c #291A01",
"L+	c #6C361E",
"M+	c #CE7028",
"N+	c #CC7236",
"O+	c #CC753F",
"P+	c #7E2819",
"Q+	c #0A0400",
"R+	c #FCFCFC",
"S+	c #434343",
"T+	c #000500",
"U+	c #FFF5FE",
"V+	c #FCFCFF",
"W+	c #000202",
"X+	c #070300",
"Y+	c #0A0200",
"Z+	c #130A03",
"`+	c #221402",
" @	c #C86F45",
".@	c #842B1B",
"+@	c #75230B",
"@@	c #0D0000",
"#@	c #000007",
"$@	c #0A0005",
"%@	c #FBFCF7",
"&@	c #BFC1BE",
"*@	c #000602",
"=@	c #0E040C",
"-@	c #000608",
";@	c #86251E",
">@	c #A34833",
",@	c #A74427",
"'@	c #782D0E",
")@	c #722016",
"!@	c #211400",
"~@	c #0B0200",
"{@	c #737373",
"]@	c #464646",
"^@	c #3F3F3F",
"/@	c #3B413F",
"(@	c #F8FFFD",
"_@	c #060004",
":@	c #C0C0BE",
"<@	c #C86C47",
"[@	c #D16F2E",
"}@	c #9D4A28",
"|@	c #9E4D22",
"1@	c #A74C20",
"2@	c #7A2C09",
"3@	c #6C2518",
"4@	c #1F1100",
"5@	c #FBFBFB",
"6@	c #3F3F41",
"7@	c #000401",
"8@	c #010009",
"9@	c #EFFFFF",
"0@	c #792C12",
"a@	c #CB7538",
"b@	c #A94B29",
"c@	c #A44525",
"d@	c #802A11",
"e@	c #792620",
"f@	c #080500",
"g@	c #777978",
"h@	c #3E403F",
"i@	c #393E42",
"j@	c #40403E",
"k@	c #7E7B76",
"l@	c #040002",
"m@	c #000600",
"n@	c #802510",
"o@	c #CE753D",
"p@	c #D37541",
"q@	c #CA6F36",
"r@	c #812C05",
"s@	c #7D2428",
"t@	c #050204",
"u@	c #000302",
"v@	c #C1C3C2",
"w@	c #4E3F46",
"x@	c #C4BABB",
"y@	c #060201",
"z@	c #050006",
"A@	c #EDFBFC",
"B@	c #7F271B",
"C@	c #7D2500",
"D@	c #6F2B08",
"E@	c #CD7142",
"F@	c #732801",
"G@	c #050300",
"H@	c #3D3F3E",
"I@	c #424242",
"J@	c #ADBDB3",
"K@	c #34483F",
"L@	c #000502",
"M@	c #FAFDFF",
"N@	c #78787A",
"O@	c #81282C",
"P@	c #78261B",
"Q@	c #7E2527",
"R@	c #942418",
"S@	c #7F2C1E",
"T@	c #F7F9F8",
"U@	c #473F3C",
"V@	c #020006",
"W@	c #CADCD0",
"X@	c #0B0000",
"Y@	c #000700",
"Z@	c #C3C1C2",
"`@	c #000300",
" #	c #030409",
".#	c #000005",
"+#	c #B2BDB5",
"@#	c #C1BDBE",
"##	c #000907",
"$#	c #BAB8B9",
"%#	c #C0BEBF",
"&#	c #FBF9FA",
"*#	c #040205",
"=#	c #000504",
"-#	c #C3C5C4",
";#	c #C1B6BC",
">#	c #B8B7BD",
",#	c #07000C",
"'#	c #C2C0C1",
")#	c #FFFFFF",
"!#	c #FFFBFF",
"~#	c #FFFEFC",
"{#	c #FFFCFC",
"]#	c #040003",
"^#	c #C4BBC0",
"/#	c #C3B8BC",
"(#	c #BEBCC1",
"_#	c #060000",
":#	c #150B01",
"<#	c #B7B7B7",
"[#	c #F9FFFD",
"}#	c #050000",
"|#	c #030002",
"1#	c #000306",
"2#	c #BCBFB8",
"3#	c #B6C1B1",
"4#	c #BCC0C1",
"5#	c #010004",
"6#	c #201300",
"7#	c #A6A6A3",
"8#	c #BDBCC2",
"9#	c #7C7A7F",
"0#	c #787D81",
"a#	c #483A3A",
"b#	c #000204",
"c#	c #FFF9FF",
"d#	c #FFFEFB",
"e#	c #FAFFFE",
"f#	c #FFF8FF",
"g#	c #000804",
"h#	c #C4C2C5",
"i#	c #2D200E",
"j#	c #261701",
"k#	c #1D0E03",
"l#	c #070806",
"m#	c #768081",
"n#	c #76786B",
"o#	c #74857B",
"p#	c #434448",
"q#	c #000A09",
"r#	c #FBFFF6",
"s#	c #090305",
"t#	c #78281D",
"u#	c #762B18",
"v#	c #00000B",
"w#	c #020D00",
"x#	c #030004",
"y#	c #070508",
"z#	c #120904",
"A#	c #3E382C",
"B#	c #4A393F",
"C#	c #797C81",
"D#	c #79747B",
"E#	c #797D80",
"F#	c #3F383F",
"G#	c #000505",
"H#	c #782A1D",
"I#	c #8A280B",
"J#	c #7B2A17",
"K#	c #090200",
"L#	c #070004",
"M#	c #020500",
"N#	c #100704",
"O#	c #030301",
"P#	c #0D0005",
"Q#	c #000606",
"R#	c #090007",
"S#	c #020106",
"T#	c #0D0012",
"U#	c #7A2212",
"V#	c #783110",
"W#	c #732611",
"X#	c #682C13",
"Y#	c #9F452C",
"Z#	c #99424F",
"`#	c #1D0300",
" $	c #160904",
".$	c #030401",
"+$	c #0C0012",
"@$	c #0F0000",
"#$	c #832614",
"$$	c #792C0E",
"%$	c #010104",
"&$	c #080907",
"*$	c #150903",
"=$	c #190E00",
"-$	c #1C1000",
";$	c #1E1002",
">$	c #1C1300",
",$	c #1B1000",
"'$	c #2C1E0A",
")$	c #8C4127",
"!$	c #A14325",
"~$	c #A14133",
"{$	c #AC5237",
"]$	c #7C2806",
"^$	c #81250E",
"/$	c #72281F",
"($	c #170B00",
"_$	c #201400",
":$	c #251602",
"<$	c #271700",
"[$	c #271800",
"}$	c #281800",
"|$	c #783E22",
"1$	c #BE6721",
"2$	c #D57338",
"3$	c #AF4F29",
"4$	c #9A4622",
"5$	c #732C00",
"6$	c #802812",
"7$	c #291A02",
"8$	c #934E2D",
"9$	c #BD6E2F",
"0$	c #9E4C37",
"a$	c #9F4B26",
"b$	c #82270C",
"c$	c #7D2C29",
"d$	c #221401",
"e$	c #120800",
"f$	c #020100",
"g$	c #060402",
"                                                                                                                                ",
"                                                                                                                                ",
"                                                                                                                                ",
"                                                                                                                                ",
"                                                                                                                                ",
"                                      . + + + +                                                                                 ",
"                                  + + @ # @ $ % + +                                                                             ",
"                              & + * = - ; - > - = @ ,                                                                           ",
"                              + ' ) ! ~ { ] { ] ^ / ( _                                                                         ",
"                            + : < [ } | 1 2 1 3 4 5 6 = 7                                                                     8 ",
"                          + 9 0 } a b c d e f g 1 h i j k 7                                                                   l ",
"                          . $ < m n o p o q r s t u 1 v w ,                                                                   x ",
"                        & % < - c b s y y z A p z c B C D 9 _                                                                   ",
"                        , = E = F G H A s I o r J K L M N % +                                                                   ",
"                        + O P Q + R F S T A U s V W X : Y * Z                                                                   ",
"                        + @ ` +  ...+ +.3 T o @.+ + _ #.$ % $.                                                                  ",
"                        , + 6 + + + + + %.&.*.W , + + + > &                                                                     ",
"                        + < > + & =.=.=.O -.;.Z + + + . ; ! +                                                                   ",
"                        X ! >.- + & + ! >.W ,.4 + 7 + ! '.> +                                                                   ",
"                        + + < E < - > > = + $ ).< - > ; ; + .                                                                   ",
"                          , + 0 W = >.!.+ $ & - >.% + N + +                                                                     ",
"                            X , W R ~.> . < + > {.$.].W W                                                                       ",
"                  + X + =.    + ^.Z -.& /.- < + (.W ;.Z {.W Z W                                                                 ",
"                =.+ 9 _.& & , & :.<.W W > + 6 + Z W [.Z W &.}.W &                                                               ",
"              + =.= _.+ |.1.=.& 2., + + Q & 3., =.+ 4.+ Z 3 5.o +                                                               ",
"            & =.$ Q , @ = $ & + 6.+ 7., + + , + W & 6.+ R 8.c 9.$.$.                                                            ",
"          + =._.= + & + 0.& . + [ W a.Z Z Z $.W b.c.- X + d.e.J f.W                                                             ",
"        , + = $ + 7.  =.g.h.1.X W i.&.W {.W ~.W f.).W + j.k.l.m.c 8.$.                                                          ",
"        + n.& + +     + * $ O + W W ~ o.~.Z {.p.q.W W =.* = r.s.c c 8.                                                          ",
"        + t.u.=.X     7 + & =.+ v.$.W w.~ 4 4 p.d.R x.+ + =.X d.y.z.A.B.                                                        ",
"        + x.n.g.+     , + C.D.j.= + + + >.E.6 + F.+ _.G.H.g.+ _ e.B I.d.                                                        ",
"        , u.C.x.&       . O Q = $ + g.+ . + =.+ J.. = K.L.M.+ N.O.P.{.d.d.                                                      ",
"        Q. .R.S.T.  U.  V.W._ X.=.u._.= =.Y.& Q Z.`. +.+++_ @+#+$+%+&+*+=+                                                      ",
"        -+;+>+,+_ W       8.'+)+g.@ 9 + + !++ + ~+{+]+^+/+(+_+:+<+[+}+|+1+2+                                                    ",
"        3+4+5+6+7+8+9+    0+a+b+$ = + + @ c+P X -+$ d+e+f+d.g+h+i+j+k+S l+m+                                                    ",
"        n+o+p+q+r+s+$+      ++t+& 7 u+, 7 c+v+w+x+y+z+d..+A+B+C+D+E+F+G+H+I+J+K+                                                ",
"        $+L+M+N+O+P+Q+              & R++ v+C.S+T+u+o {.d.c U+V+W++ X+Y+Z+`+                                                    ",
"          W  @.@+@@@              . x.. . @ Y.O #@$@%@x+&@*@=@-@;@>@,@'@)@!@                                                    ",
"            ~@#@A.              =.{@D.+ + + ]@^@/@$+(@_@:@@@<@[@}@|@1@2@3@4@                                                    ",
"                                + * 5@+ 7 + c+C.6@ +7@8@9@-+0@a@b@c@d@e@f@                                                      ",
"                                $.g@P.W [.h@Y.^@i@j@k@l@z m@n@o@p@q@r@s@t@                                                      ",
"                                W ^.(.u@W v@c+c+w@x@y@z@A@T+B@C@D@E@F@G@                                                        ",
"                                , W ;.(.].H@j.I@J@K@L@M@N@x+O@P@Q@R@S@m@                                                        ",
"                                + |.W T@W :.Y.Q U@= V@#+0.W@X@Y@[+[+T+                                                          ",
"                              + Z@j.Q $.W <.& c+W `@ #.#$++#@###                                                                ",
"                            + D.$#%#+ W W ).. & ++&#*#=# .-#;#>#,#                                                              ",
"                          _ t.1.'#_ + )#{.{.R++ !#~#{#-+]#d.^#/#(#_#                                                            ",
"                        :#<#h.D. .#.& + W }.)#)#o [#}#`@|#1#[+2#3#4#5#                                                          ",
"                        6#7#8# .9#0#a# .b#c#d#e#f#[+`@ .g#|#|#Y@j.h#d.                                                          ",
"                      i#j#k#l#T+m#n#o#p#W q#!#r#s#t#u#x+v#W w#x#[+W y#                                                          ",
"                            z#A#B#C#D#E#F#+ _#G#T+T+H#I#J#K#L#-+M#$+$+                                                          ",
"                            N#O#`@P#m@-+Q#R#S#T#$+8._#U#V#W#X#Y#Z#`#                                                            ",
"                             $.$-+`@+$@$#$$$m@z+    %$&$*$=$-$;$>$,$                                                            ",
"                        '$l )$!$~${$]$^$/$Y@X         ($_$:$<$[$}$                                                              ",
"                          |$1$2$3$4$5$6$T+.#                  7$                                                                ",
"                        [$8$9$0$a$b$c$_ W                                                                                       ",
"                        d$e$f$& & + + ,                                                                                         ",
"                          g$=.+ + =.=.                                                                                          ",
"                                                                                                                                ",
"                                                                                                                                ",
"                                                                                                                                ",
"                                                                                                                                ",
"                                                                                                                                ",
"                                                                                                                                "};
