/* XPM */
static char * right_xpm[] = {
"64 64 449 2",
"  	c #291900",
". 	c #000000",
"+ 	c #050505",
"@ 	c #060606",
"# 	c #010101",
"$ 	c #7B7B7B",
"% 	c #7F7F7F",
"& 	c #7C7C7C",
"* 	c #7A7A7A",
"= 	c #020202",
"- 	c #D5D5D5",
"; 	c #D6D6D6",
"> 	c #D4D4D4",
", 	c #DADADA",
"' 	c #CFCFCF",
") 	c #D8D8D8",
"! 	c #7A7977",
"~ 	c #81807E",
"{ 	c #010000",
"] 	c #8E8E8E",
"^ 	c #939393",
"/ 	c #D1D1D1",
"( 	c #D9D9D9",
"_ 	c #D3D3D3",
": 	c #D9DBDA",
"< 	c #CFD1D0",
"[ 	c #767877",
"} 	c #030303",
"| 	c #8F8F8F",
"1 	c #969696",
"2 	c #909090",
"3 	c #CDD2D5",
"4 	c #F8FEFE",
"5 	c #FBFFFF",
"6 	c #75797A",
"7 	c #000102",
"8 	c #8B8B8B",
"9 	c #D2D2D2",
"0 	c #7E7E7E",
"a 	c #F6FFFF",
"b 	c #F8FFFF",
"c 	c #EFF9FA",
"d 	c #F9FFFF",
"e 	c #7A8080",
"f 	c #000100",
"g 	c #949494",
"h 	c #DCDCDC",
"i 	c #CECECE",
"j 	c #919191",
"k 	c #979797",
"l 	c #737373",
"m 	c #F3FDFF",
"n 	c #EEF8FA",
"o 	c #F2FAFC",
"p 	c #777D7D",
"q 	c #000203",
"r 	c #797979",
"s 	c #F6FBFE",
"t 	c #F5FEFD",
"u 	c #F5FBFB",
"v 	c #7A7E7F",
"w 	c #000002",
"x 	c #929292",
"y 	c #CDCDCD",
"z 	c #8D8D8D",
"A 	c #787878",
"B 	c #D7D7D7",
"C 	c #7B7B7D",
"D 	c #77787A",
"E 	c #787C7D",
"F 	c #7C8282",
"G 	c #F7FDFD",
"H 	c #F9FDFE",
"I 	c #000103",
"J 	c #7E7A7B",
"K 	c #010302",
"L 	c #7B7F80",
"M 	c #F6FAFB",
"N 	c #040507",
"O 	c #7D7D7D",
"P 	c #757575",
"Q 	c #E0E0E0",
"R 	c #817F80",
"S 	c #DEDCDD",
"T 	c #050304",
"U 	c #959595",
"V 	c #8C8C8C",
"W 	c #040404",
"X 	c #797778",
"Y 	c #CFCDCE",
"Z 	c #080607",
"` 	c #BCBABB",
" .	c #DAD8D9",
"..	c #454344",
"+.	c #3F3D3E",
"@.	c #000201",
"#.	c #050706",
"$.	c #000302",
"%.	c #010506",
"&.	c #010204",
"*.	c #C2C2C4",
"=.	c #D5D7D6",
"-.	c #8C8E8D",
";.	c #7E807F",
">.	c #F6F8F7",
",.	c #F4F6F5",
"'.	c #FCFFFF",
").	c #F5F9F8",
"!.	c #F2F8F8",
"~.	c #010103",
"{.	c #FEFFFF",
"].	c #CCD0CF",
"^.	c #D5D9D8",
"/.	c #7E8281",
"(.	c #717574",
"_.	c #7A7E7D",
":.	c #797F7F",
"<.	c #757B7B",
"[.	c #737979",
"}.	c #FAFEFF",
"|.	c #F7F8FA",
"1.	c #050608",
"2.	c #B9BABC",
"3.	c #F4F8F7",
"4.	c #F7FBFA",
"5.	c #C0C0C2",
"6.	c #000200",
"7.	c #000004",
"8.	c #807980",
"9.	c #7F797D",
"0.	c #797F7B",
"a.	c #BEBEBE",
"b.	c #020403",
"c.	c #030000",
"d.	c #B8B7B3",
"e.	c #7D7E78",
"f.	c #010600",
"g.	c #F9FFFA",
"h.	c #040000",
"i.	c #7E7C7D",
"j.	c #BFBFBF",
"k.	c #BEBFC1",
"l.	c #060201",
"m.	c #C7C1C3",
"n.	c #7E747C",
"o.	c #0C000C",
"p.	c #080009",
"q.	c #080003",
"r.	c #7D7479",
"s.	c #B7B9B8",
"t.	c #B2BBB8",
"u.	c #000301",
"v.	c #060608",
"w.	c #040002",
"x.	c #020001",
"y.	c #030102",
"z.	c #8E908F",
"A.	c #000400",
"B.	c #B3BEB8",
"C.	c #77807F",
"D.	c #000104",
"E.	c #BCBBC1",
"F.	c #020307",
"G.	c #030002",
"H.	c #7F797B",
"I.	c #7E7D7B",
"J.	c #BCC2BE",
"K.	c #B7C0BD",
"L.	c #B6B7B9",
"M.	c #C3BCC3",
"N.	c #C1BFC0",
"O.	c #040605",
"P.	c #C1C2BA",
"Q.	c #7A7C71",
"R.	c #030300",
"S.	c #848178",
"T.	c #6E7A78",
"U.	c #030907",
"V.	c #84807F",
"W.	c #777978",
"X.	c #7B7C7E",
"Y.	c #7D7E82",
"Z.	c #7B797A",
"`.	c #807E7F",
" +	c #D4D6D5",
".+	c #D6D8D7",
"++	c #FBFBFB",
"@+	c #080007",
"#+	c #C3B9C4",
"$+	c #7E7681",
"%+	c #77787D",
"&+	c #000105",
"*+	c #7C817A",
"=+	c #747973",
"-+	c #030502",
";+	c #070103",
">+	c #D7D9D8",
",+	c #FFFFFF",
"'+	c #000007",
")+	c #000108",
"!+	c #B9BABE",
"~+	c #7D7D7B",
"{+	c #020300",
"]+	c #120000",
"^+	c #847973",
"/+	c #B8BDB7",
"(+	c #B6BCBA",
"_+	c #C1BCC0",
":+	c #C5BCC1",
"<+	c #BEBCBD",
"[+	c #B9BFBB",
"}+	c #BDBDBD",
"|+	c #D1D3D2",
"1+	c #110000",
"2+	c #673119",
"3+	c #A24B2F",
"4+	c #B04324",
"5+	c #663030",
"6+	c #798583",
"7+	c #76777B",
"8+	c #7D7278",
"9+	c #847E7E",
"0+	c #797B76",
"a+	c #812B1A",
"b+	c #A2491D",
"c+	c #AA4533",
"d+	c #A24A24",
"e+	c #CB772E",
"f+	c #CD6F4B",
"g+	c #000300",
"h+	c #0C0000",
"i+	c #00040D",
"j+	c #050003",
"k+	c #050704",
"l+	c #BDB8BE",
"m+	c #7F2F18",
"n+	c #A54B26",
"o+	c #A7472E",
"p+	c #C77138",
"q+	c #7D2511",
"r+	c #000807",
"s+	c #BFB8BF",
"t+	c #BDBDBF",
"u+	c #000404",
"v+	c #070000",
"w+	c #000402",
"x+	c #72281B",
"y+	c #C6712E",
"z+	c #C76E42",
"A+	c #CB7B3C",
"B+	c #782D10",
"C+	c #7E7C7F",
"D+	c #000504",
"E+	c #080000",
"F+	c #000107",
"G+	c #000500",
"H+	c #07040D",
"I+	c #000A00",
"J+	c #D96C43",
"K+	c #81260B",
"L+	c #833006",
"M+	c #732815",
"N+	c #090001",
"O+	c #762419",
"P+	c #8C271F",
"Q+	c #000603",
"R+	c #000600",
"S+	c #030007",
"T+	c #010200",
"U+	c #050102",
"V+	c #792F12",
"W+	c #851F06",
"X+	c #792712",
"Y+	c #010004",
"Z+	c #001206",
"`+	c #000005",
" @	c #00020E",
".@	c #00020F",
"+@	c #792A19",
"@@	c #87290D",
"#@	c #742914",
"$@	c #070300",
"%@	c #030207",
"&@	c #9A8884",
"*@	c #CDAFAF",
"=@	c #B9C5C5",
"-@	c #EFF6EE",
";@	c #000602",
">@	c #030100",
",@	c #000700",
"'@	c #000D01",
")@	c #7B7A76",
"!@	c #717C82",
"~@	c #7E7E80",
"{@	c #B8C3B5",
"]@	c #BCBABD",
"^@	c #F8FCFF",
"/@	c #000309",
"(@	c #7A797E",
"_@	c #777B7E",
":@	c #3D4245",
"<@	c #3D3E42",
"[@	c #030305",
"}@	c #FAFEFD",
"|@	c #F8FAF9",
"1@	c #070002",
"2@	c #847B80",
"3@	c #454142",
"4@	c #3C3C3A",
"5@	c #BCBEB9",
"6@	c #B6B9B2",
"7@	c #000501",
"8@	c #3A3C39",
"9@	c #C2BEBB",
"0@	c #C5C0BD",
"a@	c #BFC1C0",
"b@	c #BBBDBC",
"c@	c #777779",
"d@	c #040005",
"e@	c #070007",
"f@	c #B8BAB9",
"g@	c #FBFDFC",
"h@	c #FAFCFB",
"i@	c #F8FCFB",
"j@	c #030706",
"k@	c #010002",
"l@	c #050004",
"m@	c #BDBFBE",
"n@	c #B8BCBB",
"o@	c #FBFFFE",
"p@	c #040902",
"q@	c #030504",
"r@	c #B6B8B7",
"s@	c #BABEBD",
"t@	c #080405",
"u@	c #40483D",
"v@	c #BABCBB",
"w@	c #BBBFBE",
"x@	c #802417",
"y@	c #713125",
"z@	c #140000",
"A@	c #433F3C",
"B@	c #434449",
"C@	c #403D46",
"D@	c #423B43",
"E@	c #443D44",
"F@	c #414141",
"G@	c #F9F9F9",
"H@	c #B9BDBC",
"I@	c #B7BBBA",
"J@	c #73290C",
"K@	c #882415",
"L@	c #3B3E43",
"M@	c #43423D",
"N@	c #453939",
"O@	c #3F3F49",
"P@	c #453C41",
"Q@	c #3E4241",
"R@	c #010100",
"S@	c #B6C1BB",
"T@	c #B4C0BE",
"U@	c #7D3310",
"V@	c #712913",
"W@	c #792906",
"X@	c #3E4349",
"Y@	c #413C39",
"Z@	c #3E4033",
"`@	c #020109",
" #	c #4F3D4D",
".#	c #393937",
"+#	c #767680",
"@#	c #7E7980",
"##	c #7B7C80",
"$#	c #000009",
"%#	c #0C0004",
"&#	c #0B0000",
"*#	c #060912",
"=#	c #060000",
"-#	c #75281E",
";#	c #83240E",
">#	c #792E0E",
",#	c #05100A",
"'#	c #000800",
")#	c #030208",
"!#	c #4A4049",
"~#	c #48424C",
"{#	c #3C3A47",
"]#	c #404036",
"^#	c #493D3F",
"/#	c #030005",
"(#	c #06030E",
"_#	c #080204",
":#	c #7E2A0E",
"<#	c #6E2D11",
"[#	c #83211E",
"}#	c #7B2E1A",
"|#	c #FFFAFF",
"1#	c #752919",
"2#	c #802E09",
"3#	c #0E000A",
"4#	c #080400",
"5#	c #000209",
"6#	c #0E0206",
"7#	c #72320E",
"8#	c #792F08",
"9#	c #7C2410",
"0#	c #802B0E",
"a#	c #862A1D",
"b#	c #87291D",
"c#	c #79230A",
"d#	c #712C0D",
"e#	c #050B00",
"f#	c #050100",
"g#	c #040100",
"h#	c #00090B",
"i#	c #08030A",
"j#	c #000305",
"k#	c #08000B",
"l#	c #030010",
"m#	c #00020B",
"n#	c #8E1D17",
"o#	c #7D2E1D",
"p#	c #742902",
"q#	c #A54E32",
"r#	c #A64123",
"s#	c #9F4F36",
"t#	c #D1733D",
"u#	c #CB6D30",
"v#	c #D0763A",
"w#	c #D47545",
"x#	c #08000D",
"y#	c #010900",
"z#	c #000D09",
"A#	c #000307",
"B#	c #782B17",
"C#	c #74290A",
"D#	c #7F280D",
"E#	c #A94633",
"F#	c #9E4D1E",
"G#	c #964C2F",
"H#	c #CD733E",
"I#	c #DB6F27",
"J#	c #C7753D",
"K#	c #C96E3F",
"L#	c #0A0000",
"M#	c #0D0002",
"N#	c #050006",
"O#	c #000106",
"P#	c #000406",
"                                                                                                                                ",
"                                                                                                                                ",
"                                                                                                                                ",
"                                                                                                                                ",
"                                                                                                                                ",
"                                                                                                                                ",
"                                                    . . . + . @                                                                 ",
"                                                . # $ % & * & * = .                                                             ",
"                                              . * - ; > , - ' ) ! ~ {                                                           ",
"                                            . & - ) ] ^ / ; ( _ : < [ }                                                         ",
"                                          # | ; ( ; / ^ 1 2 - - 3 4 5 6 7                                                       ",
"                                        . 8 ^ > 9 > , _ ] 2 0 9 a b c d e f                                                     ",
"                                        . g ^ 9 ( 9 h i j k l ) m n b o p q                                                     ",
"                                        . | g - ; - > ' k r & ; 5 s b t u v w                                                   ",
"                                        . x 8 ( ) y ; , z A ; B C D E F G H I                                                   ",
"                                        . x j 2 > B B > x & ; r J { K 7 L M N                                                   ",
"                                          . ] g x ; - x * & / O K K . . . * f                                                   ",
"                                            . j ] 1 2 2 O P Q A f K . R S - f                                                   ",
"                                            T { U V 2 # A ) / - . . W X Y $ W                                                   ",
"                                          Z ` { . W . . W O > ) - . . {  .O .                                                   ",
"                                      . # . ..+.. # . W . } ( _ > ) g | 2 .                                                     ",
"                        @.#.f $.%.w w &.D *.w w } . . # = . . - # ' =.: -.;..                                                   ",
"                      @.>.,.'.).!.'.'.M w w w ~.. . = O # . . . @ f {.].^.f                                                     ",
"                      @.f /.(._.:.<.[.L }.|.1.2.. = . A . . # # f #.3.$.4.@.                                                    ",
"                      w 5.w . . 6.6.6.7.8.9.= 0.a.. W r O . } . b.. . . r .                                                     ",
"                      c.d.e.f.g.h.i.j.k.N w . . $ $ . . z x . . f       .                                                       ",
"                      l.m.n.o.p.q.r.J s.t.u.v.w.x.{ y.= U z.f K f                                                               ",
"                      A.B.C.D.E.F.G.H.I.J.K.L.M.N.{ y.. _ =.f {.O..                                                             ",
"                      f P.Q.R.S.T.U.{ V.! W.X.Y.Z.`.y.. }  +.+,.f ++.                                                           ",
"                      @+#+$+%+&+*+=+-+{ ;+c.. 6.x.{ { } . f >+: =.,+.                                                           ",
"                      '+)+!+~+{+]+^+/+(+_+:+<+[+}+W         . B |+.                                                             ",
"                        1+2+3+4+5+]+6.6+7+8+9+0+. .         . .  +=                                                             ",
"                        G.a+b+c+d+e+f+g+h+c.i+j+c.            f #                                                               ",
"                      k+l+g+m+n+o+p+q+r+s+t+u+v+                                                                                ",
"                        w+G.x+y+z+A+B+A.C+f D+E+F+G+g+                                                                          ",
"                        h.H+I+J+K+L+M+v+N+y.$.{ { O+P+.                                                                         ",
"                      Q+R+S+'+T+q 6.v+      7.U+V+W+X+G+                                                                        ",
"                      Y+E+Z+`+ @.@            '++@@@#@$@                                                                        ",
"                      %@w &@*@=@-@;@            >@,@'@                                                                          ",
"                    A.)@!@~@{@]@{.^@/@                                                                                          ",
"                    x.(@_@:@<@[@}@|@b.                                                                                          ",
"                    1@2@3@4@5@6@f b.f                                                                                           ",
"                      7@8@f 9@0@a@b@f f O.                                                                                      ",
"                        Q+c@d@e@f@a@g@h@i@f j@                                                                                  ",
"                        k@l@%@D.W @.b@m@n@o@4.@.f                                                                               ",
"                        w.h.p@,@. . q@f r@a@s@i@4.@.                                                                            ",
"              . E+6.A.$.7.t@f u@= . ,+. b.q@b@v@w@'.f                                                                           ",
"              . x@y@z@A@B@C@D@E@F@. . ,+,+G@= # H@I@o@b.                                                                        ",
"              . J@K@E+)+L@M@N@O@P@Q@T+6.g+g+g+R@T+S@T@f                                                                         ",
"              W U@V@W@,@'+X@Y@Z@6.`@'+ #.#+#@###$#%#&#*#                                                                        ",
"              . =#-#;#>#h.. ,#A.'#f )#{+!#~#{#]#^#/#(#h.                                                                        ",
"              = _#:#<#[#}#{ F+|#v+1#2#f `+3#4#5#h.R+                                                                            ",
"              # A.6#7#8#9#0#a#f c.b#c#d#e#R+f#g#R+E+=#h#                                                                        ",
"                i#g+j#k#l#E+m#f &+h.n#o#p#q#r#s#t#u#v#w#c.                                                                      ",
"                  c.w x#y#z#g+= I+A#R+B#C#D#E#F#G#H#I#J#K#L#                                                                    ",
"                                  v+v+A.M#N#,@h.h.G.O#c.P#v+                                                                    ",
"                                    . . . . . = # . . # .                                                                       ",
"                                                                                                                                ",
"                                                                                                                                ",
"                                                                                                                                ",
"                                                                                                                                ",
"                                                                                                                                ",
"                                                                                                                                ",
"                                                                                                                                "};
