/* XPM */
static char * back_xpm[] = {
"64 64 6 1",
" 	c #291900",
".	c #483E25",
"+	c #CCCCCC",
"@	c #827C64",
"#	c #FFFFFF",
"$	c #776E4A",
"                                                                ",
"                                                                ",
"                                                                ",
"                                                                ",
"                                                                ",
"                                                                ",
"                                                                ",
"                                                                ",
"                            ........                            ",
"                          ..++++++++..                          ",
"                         .+@########++.                         ",
"                        .+#+@#########+.                        ",
"                       .+###+@#########+.                       ",
"                       .+####+@@#######+.                       ",
"                       .+#####++@@@####+.                       ",
"                       .@#######+++@@@#+.                       ",
"                       .+@@########+++@@.                       ",
"                      ..+++@@@#########+..                      ",
"                     .#@+##+++@@@######+@#.                     ",
"                     .#+######+++@@@@###+#.                     ",
"                     .#@#########++++@@@+#.                     ",
"                     .+@@@@@#########+++@+.                     ",
"                      . ++++@@@@#######+ .                      ",
"                       .++++++++@@@###+ .                       ",
"                        .++++++++++  @+.                        ",
"                        .++$########.  .                        ",
"                         ..##########..                         ",
"                         .+@##########.                         ",
"                        .##+@@#######@+.                        ",
"                        .###++@@@@@@@+#.                        ",
"                       .##@###+++++++###.                       ",
"                       .##@#############.                       ",
"                       .##@#############.                       ",
"                       .#.+@@#########.#.                       ",
"                        ..#++@@@@@@###..                        ",
"                         .###++++++@@@.                         ",
"                         .#########+++.                         ",
"                         .@###########.                         ",
"                         .+@@@########.                         ",
"                         .#+++@@@@@@@@.                         ",
"                         .####++++++++.                         ",
"                         .############.                         ",
"                         .#####..#####.                         ",
"                         .##@@....####.                         ",
"                         .@@++.  .@@##.                         ",
"                         .++##.  .++@@.                         ",
"                         .####.  .##++.                         ",
"                         .@@##.  .####.                         ",
"                         .++@@.  .@@##.                         ",
"                         .##++.  .##@@.                         ",
"                         .####.  .####.                         ",
"                         .@###.  .@###.                         ",
"                         .+@@@.  .+@@@.                         ",
"                         .#+++.  .#+++.                         ",
"                          ....    ....                          ",
"                                                                ",
"                                                                ",
"                                                                ",
"                                                                ",
"                                                                ",
"                                                                ",
"                                                                ",
"                                                                ",
"                                                                "};
