/* XPM */
static char * left_xpm[] = {
"64 64 11 1",
" 	c #291900",
".	c #776E4A",
"+	c #CCCCCC",
"@	c #827C64",
"#	c #FFFFFF",
"$	c #3A2E27",
"%	c #000000",
"&	c #FF2400",
"*	c #FFA293",
"=	c #D7D7D7",
"-	c #66614E",
"                                                                ",
"                                                                ",
"                                                                ",
"                                                                ",
"                                                                ",
"                                                                ",
"                                                                ",
"                                                                ",
"                                                                ",
"                                                                ",
"                                                                ",
"                                                                ",
"                                                                ",
"                         .........                              ",
"                       ..+@###+@##..                            ",
"                      .###+@##+@####.                           ",
"                     .#@###+@#+@####.                           ",
"                    .#+@###+@##+@####.                          ",
"                    .##+@###+@#+@####.                          ",
"                    .##+@###+@##+@@##.                          ",
"                    .###+@###+@##++@@.                          ",
"                    .###+@###+@####++.                          ",
"                    .####+@###+@@####.                          ",
"                    .@##$$$@###..@@##.                          ",
"                    .+@$$$$+@##@#.+@@.                          ",
"                    .#+%%&&#+@#@#.#++.                          ",
"                    .##%%&&##+@@#.###.                          ",
"                    .##**==###+@#.--.                           ",
"                    .@#**=@@###+.+++.                           ",
"                    .+@###++@@@.+#..                            ",
"                    .#+@@@##++++#.+.                            ",
"                     .#+++@@---..+#.                            ",
"                      .###+++..+@##.                            ",
"                       .......##+@@.                            ",
"                          ..#####+++.                           ",
"                    ......+@####@###.                           ",
"                   .##@++@#+@#..+@@@.                           ",
"                   .##@+#+@+..++++++.                           ",
"                   .##@+#...++@@####.                           ",
"                   .#@+#.  .##++@@@@.                           ",
"                    ....   .@###++++.                           ",
"                           .+@@#####.                           ",
"                           .#++@@@@@.                           ",
"                           .###+++++.                           ",
"                           .@########.                          ",
"                           .+@#######.                          ",
"                           .#+@@@@@@@.                          ",
"                           .##+++++++.                          ",
"                           .+########.                          ",
"                            .+#####@@.                          ",
"                            .@@@@@@+.                           ",
"                            .++++++.                            ",
"                             .###+.                             ",
"                             .@@#+.                             ",
"                             .++@@.                             ",
"                             .##++.                             ",
"                             .@##+.                             ",
"                             .+@@+.                             ",
"                            .##++@.                             ",
"                            .####+.                             ",
"                            .......                             ",
"                                                                ",
"                                                                ",
"                                                                "};
