/* XPM */
static char * right_xpm[] = {
"64 64 11 1",
" 	c #291900",
".	c #776E4A",
"+	c #FFFFFF",
"@	c #827C64",
"#	c #CCCCCC",
"$	c #3A2E27",
"%	c #FF2400",
"&	c #000000",
"*	c #66614E",
"=	c #D7D7D7",
"-	c #FFA293",
"                                                                ",
"                                                                ",
"                                                                ",
"                                                                ",
"                                                                ",
"                                                                ",
"                                                                ",
"                                                                ",
"                              .........                         ",
"                            ..++@#+++@#..                       ",
"                           .++++@#++@#+++.                      ",
"                           .++++@#+@#+++@+.                     ",
"                          .++++@#++@#+++@#+.                    ",
"                          .++++@#+@#+++@#++.                    ",
"                          .++@@#++@#+++@#++.                    ",
"                          .@@##++@#+++@#+++.                    ",
"                          .##++++@#+++@#+++.                    ",
"                          .++++@@#+++@#++++.                    ",
"                          .++@@..+++@$$$++@.                    ",
"                          .@@#.+@++@#$$$$@#.                    ",
"                          .##+.+@+@#+%%&&#+.                    ",
"                          .+++.+@@#++%%&&++.                    ",
"                           .**.+@#+++==--++.                    ",
"                           .###.#+++@@=--+@.                    ",
"                            ..+#.@@@##+++@#.                    ",
"                            .#.+####++@@@#+.                    ",
"                            .+#..***@@###+.                     ",
"                            .++@#..###+++.                      ",
"                            .@@#++.......                       ",
"                           .###+++++..                          ",
"                           .+++@++++@#......                    ",
"                           .@@@#..+@#+@##@++.                   ",
"                           .######..#@#+#@++.                   ",
"                           .++++@@##...+#@++.                   ",
"                           .@@@@##++.  .+#@+.                   ",
"                           .####+++@.   ....                    ",
"                           .+++++@@#.                           ",
"                           .@@@@@##+.                           ",
"                           .#####+++.                           ",
"                          .++++++++@.                           ",
"                          .+++++++@#.                           ",
"                          .@@@@@@@#+.                           ",
"                          .#######++.                           ",
"                          .++++++++#.                           ",
"                          .@@+++++#.                            ",
"                           .#@@@@@@.                            ",
"                            .######.                            ",
"                             .#+++.                             ",
"                             .#+@@.                             ",
"                             .@@##.                             ",
"                             .##++.                             ",
"                             .#++@.                             ",
"                             .#@@#.                             ",
"                             .@##++.                            ",
"                             .#++++.                            ",
"                             .......                            ",
"                                                                ",
"                                                                ",
"                                                                ",
"                                                                ",
"                                                                ",
"                                                                ",
"                                                                ",
"                                                                "};
