/* XPM */
static char *_bc6d53cfecf4d34b827243e70bba482AQEgiuONcLOXE2y3[] = {
/* columns rows colors chars-per-pixel */
"64 64 214 2 ",
"   c #140103",
".  c #1B0402",
"X  c #1D0C01",
"o  c #1F0B0A",
"O  c #1D1402",
"+  c #1E1802",
"@  c #240C01",
"#  c #290F00",
"$  c #260D0C",
"%  c #251401",
"&  c #291602",
"*  c #261A01",
"=  c #291900",
"-  c #24150B",
";  c #2A150C",
":  c #2B1B0A",
">  c #251C0B",
",  c #321700",
"<  c #321B03",
"1  c #311E0B",
"2  c #371605",
"3  c #2A1413",
"4  c #2C1C11",
"5  c #261712",
"6  c #232201",
"7  c #2C2102",
"8  c #272109",
"9  c #2B200E",
"0  c #322202",
"q  c #3E2505",
"w  c #34230E",
"e  c #3E280C",
"r  c #332216",
"t  c #412700",
"y  c #422F02",
"u  c #47290F",
"i  c #4C2C0C",
"p  c #492A04",
"a  c #443107",
"s  c #4D3700",
"d  c #463308",
"f  c #4D330B",
"g  c #4E3A0C",
"h  c #573C0A",
"j  c #492D1F",
"k  c #493513",
"l  c #463519",
"z  c #503611",
"x  c #5B3A11",
"c  c #64480D",
"v  c #75540D",
"b  c #604A18",
"n  c #654912",
"m  c #6C5217",
"M  c #695418",
"N  c #726217",
"B  c #5B4722",
"V  c #705721",
"C  c #7B6927",
"Z  c #84621B",
"A  c #88681F",
"S  c #856A14",
"D  c #9E7E1C",
"F  c #96791E",
"G  c #836928",
"H  c #977C2B",
"J  c #817237",
"K  c #8D7D41",
"L  c #927940",
"P  c #9E8315",
"I  c #9F8911",
"U  c #9F871D",
"Y  c #93861E",
"T  c #A38A0D",
"R  c #A28B07",
"E  c #A89008",
"W  c #A28517",
"Q  c #A88915",
"!  c #AD8C1B",
"~  c #A78718",
"^  c #A99815",
"/  c #B2951A",
"(  c #9C8B28",
")  c #9C8435",
"_  c #A28922",
"`  c #A88C36",
"'  c #A4923E",
"]  c #B49E37",
"[  c #BCA835",
"{  c #CAB30F",
"}  c #CEAD12",
"|  c #CBB31D",
" . c #D5B515",
".. c #D6B609",
"X. c #D2B720",
"o. c #C6A927",
"O. c #DCCD12",
"+. c #EACF0C",
"@. c #F1CD0F",
"#. c #F5D50E",
"$. c #F4D80F",
"%. c #F8D90C",
"&. c #E5C714",
"*. c #EBCB1B",
"=. c #E9C81C",
"-. c #ECD21C",
";. c #EED216",
":. c #F5DB15",
">. c #F8D41C",
",. c #F6D919",
"<. c #FADC1B",
"1. c #F8DB13",
"2. c #F6E00B",
"3. c #FEE91D",
"4. c #D6C426",
"5. c #D9C73D",
"6. c #E4CB22",
"7. c #E7C924",
"8. c #F4D323",
"9. c #FDDB22",
"0. c #FADC29",
"q. c #F2DA27",
"w. c #ECD634",
"e. c #EEDA36",
"r. c #EED63D",
"t. c #EDDA3C",
"y. c #E3D33A",
"u. c #F4D434",
"i. c #F3DB34",
"p. c #F5D33D",
"a. c #F2D93C",
"s. c #FAD938",
"d. c #EBD72A",
"f. c #FDE232",
"g. c #FDE23B",
"h. c #F4E036",
"j. c #F6E325",
"k. c #97894C",
"l. c #A38950",
"z. c #AD9A58",
"x. c #B8A849",
"c. c #B7A84D",
"v. c #B89E61",
"b. c #B6A867",
"n. c #B6A66C",
"m. c #B8A769",
"M. c #B7A670",
"N. c #B8A970",
"B. c #B7A678",
"V. c #C8AE4F",
"C. c #C7AE4A",
"Z. c #C4B359",
"A. c #C3A769",
"S. c #C1B376",
"D. c #D5C040",
"F. c #D8CD57",
"G. c #DFD05B",
"H. c #ECD644",
"J. c #EDDD44",
"K. c #EDD74B",
"L. c #EDDB49",
"P. c #E4D247",
"I. c #F3D641",
"U. c #FAD743",
"Y. c #F4DC44",
"T. c #F9DC44",
"R. c #F5D64C",
"E. c #F4DA4A",
"W. c #F9DC4C",
"Q. c #ECDC56",
"!. c #F3DC51",
"~. c #FBDC51",
"^. c #F3DE5B",
"/. c #F5D755",
"(. c #ECE149",
"). c #F5E243",
"_. c #FCE445",
"`. c #F6E847",
"'. c #FEEB44",
"]. c #F2E34C",
"[. c #FCE34C",
"{. c #FEEA49",
"}. c #F1E354",
"|. c #FEE653",
" X c #F4E65E",
".X c #FDE25A",
"XX c #FEEA55",
"oX c #D6C671",
"OX c #F2DE6E",
"+X c #E7DF74",
"@X c #E1D37A",
"#X c #FFEE64",
"$X c #F7E26A",
"%X c #F7E668",
"&X c #FCEC74",
"*X c #F1EA78",
"=X c #FFF675",
"-X c #D9CC86",
";X c #DDD082",
":X c #E4DA88",
">X c #FCED84",
",X c #F7E78A",
"<X c #FFF285",
"1X c #FFF68D",
"2X c #F6F388",
"3X c #FFF394",
"4X c #FFFB90",
"5X c #FFF29F",
"6X c #FDFC9D",
"7X c #F7F69C",
"8X c #F7E495",
"9X c #FFFFA2",
"0X c #FFFFAE",
"qX c #FFF5A2",
/* pixels */
"= = = = = = = = = = = = = = = = = = = = = = = = = = = = = = = = = = = = = = = = = = = = = = = = = = = = = = = = = = = = = = = = ",
"= = = = = = = = = = = = = = = = = = = = = = = = = = = = = = = = = = = = = = = = = = = = = = = = = = = = = = = = = = = = = = = = ",
"= = = = = = = = = = = = = = = = = = = = = = = = = = = = = = = = = = = = = = = = = = = = = = = = = = = = = = = = = = = = = = = = ",
"= = = = = = = = = = = = = = = = = = = = = = = = = = = = = = = = = = = = = = = = = = = = = = = = = = = = = = = = = = = = = = = = ",
"= = = = = = = = = = = = = = = = = = = = = = = = = = = = = = = = = = = = = = = = = = = = = = = = = = = = = = = = = = = = = = = = ",
"= = = = = = = = = = = = = = = = = = = = = = = = = = = = = = = = = = = = = = = = = = = = = = = = = = = = = = = = = = = = = = = = ",
"= = = = = = = = = = = = = = = = = = = = = = = = = = = = = = = = = = = = = = = = = = = = = = = = = = = = = = = = = = = = = = = = ",
"= = = = = = = = = = = = = = = = = = = = = = = = = = = = = = = = = = = = = = = = = = = = = = = = = = = = = = = = = = = = = = = = ",
"= = = = = = = = = = = = = = = = = = = = = = = = = = = = = = = = = = = = = = = = = = = = = = = = = = = = = = = = = = = = = = = = ",
"= = = = = = = = = = = = = = = = = = = = = = = = = = = = = = = = = = = = = = = = = = = = = = = = = = = = = = = = = = = = = = = = ",
"= = = = = = = = = = = = = = = = = = = = = = = = = = = = = = = = = = = = = = = = = = = = = = = = = = = = = = = = = = = = = = = = ",
"= = = = = = = = = = = = = = = = = = = = = = = = = = = = = = = = = = = = = = = = = = = = = = = = = = = = = = = = = = = = = = = = ",
"= = = = = = = = = = = = = = = = = = = = = = = = = = = = = = = = = = = = = = = = = = = = = = = = = = = = = = = = = = = = = = = = ",
"= = = = = = = = = = = = = = = = = = = = = = = = = = = = = = = = = = = = = = = = = = = = = = = = = = = = = = = = = = = = = = = = ",
"= = = = = = = = = = = = = = = = = = = = = = = = = = = = = = = = = = = = = = = = = = = = = = = = = = = = = = = = = = = = = = = = ",
"= = = = = = = = = = = = = = = = = = = = = = = = = = = = = = = = = = = = = = = = = = = = = = = = = = = = = = = = = = = = = = = = ",
"= = = = = = = = = & & : = & = = * = = * * * = * = = = = : = & = = = = = = = = = = = = = = = = = = = = = = = = = = = = = = = = = ",
"= = = = = = = = = 7 * = = = : % = & & = = & & : = = = = * = : = = = = = = = = = = = = = = = = = = = = = = = = = = = = = = = = = ",
"= = = = = = = = = * = = = = * = * = = = = & & = = = = = = = = * = = = = = = = = = = = = = = = = = = = = = = = = = = = = = = = = ",
"= = = = = = = = : * = * * = = = = = = : : : = = % 1 : * = : = = = = = = = = = = = = = = = = = = = = = = = = = = = = = = = = = = ",
"= = = = = = = = % : = = : * & : - @ X X % % X X * : : = & % * = = = = = = = = = = = = = = = = = = = = = = = = = = = = = = = = = ",
"= = = = = = = = : % = * * w % @ t V l.A.A.v.L M 0 % % : : = : = = = = = = = = = = = = = = = = = = = = = = = = = = = = = = = = = ",
"= = = = = = = = = * = = 1 @ 0 k.:X7X6X1X2X6X9X7X-XJ 0 % : : * = = = = = = = = = = = = = = = = = = = = = = = = = = = = = = = = = ",
"= = = = = = = = * : & 4 @ B ;X4X%X^.K.r.r.H.K.^.2X0XS.k @ : : = = = = = = = = = = = = = = = = = = = = = = = = = = = = = = = = = ",
"= = = = = = = = & > 8 X M *X%XE.a.Y.T.~.W.T._.I.a.L.<X+Xl % * : = = = = = = = = = = = = = = = = * = & = = * = = * * * : * = = * ",
"= = = = = = = = = - % z OX XK.T./.|.`.P.5.y.).'._.~.y.,X@X< = & & & & & & & & & = = = = = = = = 3 : & = = & = : = = = = * = = = ",
"= = = = = = = = = % < C..Xa.[.a.[.] n 0 w e m V..XE._.!.#X' # ; * * * * * * * * * * * * * * * * : = = = = & = = = = = = * = = = ",
"= = = = = = = = & & m |.Y.w.[.W.G @ # = O 4 . # ) |.Y.i.E. Xg 3 = = = = = = = = = = = = = = = = = = = = = = : : * * = = = = = * ",
"= = = = = = = = : @ [ |.T.E.{.H . : * = : * 7 * @ ] {.E.E.`.Y   # # # # # # # # @ @ @ @ @ @ @ @ o @ @ % X X % # = * = = = = = = ",
"= = = = = = = = * q P.E.Y.{.D., - : = & 1 = O 4 ; q L.W.E.).G.n.b.b.b.b.b.b.b.b.b.b.b.b.b.b.b.b.N.m.b.M.B.n.x.^ e & = = = = = = ",
"= = = = = = = = * h !.T.!.g.` @ 7 % 3 : * = = * * 3 [ '.W.Y.$X=X1X1X1X1X1X1X1X1X1X1X1X1X1X1X1X1X1X<X<X3XqX3X#Xd.k & = = * = = = ",
"= = = = = = = = X m _.Y.H.{.G X , = = * * ; & , : X ( [.R.T.r.J.a.a.a.a.a.a.a.a.a.a.a.a.a.a.a.a.H.J.a.e.w.t.a.=.k % = = = = = = ",
"= = = = = = = = O c [.Y.H.{.G X = = = = = = = = 6 . ` |.R.a.R.s.a.a.a.a.a.a.a.a.t.W.p.).].t.!.a.I.i.U.!.}.Y.h.=.d % = * = = & = ",
"= = = = = = = = - s r._.E.'.) - : * = * = = % : = 3 [ '.Y.E.6.2.,.,.,.,.,.,.,.,.2.#.;.L.]._.u.@.%.$.#.-.Y.W.Y.6.d % = * = = & = ",
"= = = = = = = = ; q 4.g.p.XXF.0 * : : * = = * 4 ; f Q.].T.i. .D W P P P P P P P P Q 8.W.W.W.f.} _ F  .0.Y.U.T.=.d % = * & = & = ",
"= = = = = = = = 1 @ ^ g.U.L.1X( X = * : 3 * 0 % @ c.=X!.u.,.F . @ @ @ @ X X @ @ X p 6.a.Y.H.f.~     P h.Y.T.).*.d % = = & = * = ",
"= = = = = = = = & * b -.s.R.Q.&XK % $ & % ; . = z.=XJ.W.8.&.i % = = = = = = = = * p O.).).[.s./ % ; / j.Y.W.J.6.d % = = = = * = ",
"= = = = = = = = = : ; / :.T.Y.$X1XZ.N q y g C oX>X].a.u.1.D # 6 = = = = = = = = 5 i 6.p.u.p.0.! - $ ! q.u.p.r.7.d % = = = = = = ",
"= = = = = = = = * 1 X j 4.;.~.r.Q.>XqX8X:X8X3X>X].Y.U.-.| 2 @ 4 * * * * * * * * + f 8.9.9.>.3.^ O % ! 3.:.>.,.@.a % = = = = = = ",
"= = = = = = = = & * : % x &.$.e.E.J.L.%X&X}.(.L.a.u.$.X.u % 7 * = = & & & = = = + q T W T ~ ! S % & Z E R Q T Q a % = = = = = = ",
"= = = = = = = = : % 7 : X h o.1.q.i.a.I.I.I.a.i.>.0./ y o * = = = = = = = = = = & * % X X X % % = * % % X X X @ = = = = = = = = ",
"= = = = = = = = = 0 * & r @ 2 A ..*.9.<.<.<.1.+.{ v ; % = = & & = = = = = = = = = = = = = = = = = = = = = = : : = = = = = = = = ",
"= = = = = = = = = = : * % 9 % @ 2 n S I ^ U Z c & @ & 0 * : w & = = = = = = = = * & = = = = = = = = = = = = = = = = = = = = = = ",
"= = = = = = = = = = = = 7 * % : - - X X X % % X 4 = = ; * * * = = = = = = = = = = = = & = = = = = = = = = = * * = = = = = = = = ",
"= = = = = = = = * = : & % * : = = = = = = = = : % = = & : : = = = = = = = = = = : = = = = = = = = = = = = = = = = = = = = = = = ",
"= = = = = = = = : = % = : & : & * = = : : & = & & & = : = = * - = = = = = = = = & = = = = = = = = = = = = = = = = = = = = = = = ",
"= = = = = = = = & = = = * * = = : = * * = = = * = : : ; & : : = = = = = = = = = = = = = = = = = = = = = = = = = = = = = = = = = ",
"= = = = = = = = = * = & * 8 * ; & & = = = * & : & * * * = * % < = = = = = = = = = = = = = = = = = = = = = = = = = = = = = = = = ",
"= = = = = = = = = = = = = = = = = = = = = = = = = = = = = = = = = = = = = = = = = = = = = = = = = = = = = = = = = = = = = = = = ",
"= = = = = = = = = = = = = = = = = = = = = = = = = = = = = = = = = = = = = = = = = = = = = = = = = = = = = = = = = = = = = = = = ",
"= = = = = = = = = = = = = = = = = = = = = = = = = = = = = = = = = = = = = = = = = = = = = = = = = = = = = = = = = = = = = = = = ",
"= = = = = = = = = = = = = = = = = = = = = = = = = = = = = = = = = = = = = = = = = = = = = = = = = = = = = = = = = = = = = = = = ",
"= = = = = = = = = = = = = = = = = = = = = = = = = = = = = = = = = = = = = = = = = = = = = = = = = = = = = = = = = = = = = = = = ",
"= = = = = = = = = = = = = = = = = = = = = = = = = = = = = = = = = = = = = = = = = = = = = = = = = = = = = = = = = = = = = = = = ",
"= = = = = = = = = = = = = = = = = = = = = = = = = = = = = = = = = = = = = = = = = = = = = = = = = = = = = = = = = = = = = = = = ",
"= = = = = = = = = = = = = = = = = = = = = = = = = = = = = = = = = = = = = = = = = = = = = = = = = = = = = = = = = = = = = = = = ",
"= = = = = = = = = = = = = = = = = = = = = = = = = = = = = = = = = = = = = = = = = = = = = = = = = = = = = = = = = = = = = = = = ",
"= = = = = = = = = = = = = = = = = = = = = = = = = = = = = = = = = = = = = = = = = = = = = = = = = = = = = = = = = = = = = = = = ",
"= = = = = = = = = = = = = = = = = = = = = = = = = = = = = = = = = = = = = = = = = = = = = = = = = = = = = = = = = = = = = = = = ",
"= = = = = = = = = = = = = = = = = = = = = = = = = = = = = = = = = = = = = = = = = = = = = = = = = = = = = = = = = = = = = = = = ",
"= = = = = = = = = = = = = = = = = = = = = = = = = = = = = = = = = = = = = = = = = = = = = = = = = = = = = = = = = = = = = = = = ",
"= = = = = = = = = = = = = = = = = = = = = = = = = = = = = = = = = = = = = = = = = = = = = = = = = = = = = = = = = = = = = = = = ",
"= = = = = = = = = = = = = = = = = = = = = = = = = = = = = = = = = = = = = = = = = = = = = = = = = = = = = = = = = = = = = = = = ",
"= = = = = = = = = = = = = = = = = = = = = = = = = = = = = = = = = = = = = = = = = = = = = = = = = = = = = = = = = = = = = = = = "
};
