/* XPM */
static char *_95ef801ab6e4ccdf2a0b3b2ee095039CslkzQc7lZDOwC33[] = {
/* columns rows colors chars-per-pixel */
"64 64 256 2 ",
"   c #1A0B04",
".  c #1D1301",
"X  c #1B1B02",
"o  c #171707",
"O  c #0C1417",
"+  c #151617",
"@  c #0E1608",
"#  c #240E00",
"$  c #290E00",
"%  c #270906",
"&  c #241401",
"*  c #2B1502",
"=  c #251B02",
"-  c #2A1A01",
";  c #2A160B",
":  c #241A0A",
">  c #2A190A",
",  c #25160A",
"<  c #321501",
"1  c #321B01",
"2  c #341808",
"3  c #281913",
"4  c #33160C",
"5  c #1A2100",
"6  c #142C13",
"7  c #232000",
"8  c #2A2205",
"9  c #392301",
"0  c #2B2416",
"q  c #121D26",
"w  c #15252F",
"e  c #29332B",
"r  c #441F00",
"t  c #462701",
"y  c #4E3706",
"u  c #583C24",
"i  c #354A32",
"p  c #3C7639",
"a  c #574C0C",
"s  c #755A00",
"d  c #6D520B",
"f  c #7A6917",
"g  c #515633",
"h  c #726A36",
"j  c #5D6D33",
"k  c #1B3555",
"l  c #182E45",
"z  c #2E3C4A",
"x  c #254658",
"c  c #33455C",
"v  c #33544E",
"b  c #3B6C51",
"n  c #1C516E",
"m  c #365968",
"M  c #355676",
"N  c #2D4D6E",
"B  c #386468",
"V  c #377273",
"C  c #1A596D",
"Z  c #47504E",
"A  c #4B7653",
"S  c #697050",
"D  c #495A6F",
"F  c #577566",
"G  c #596A76",
"H  c #557878",
"J  c #4B6D6F",
"K  c #64716C",
"L  c #605B61",
"P  c #856A02",
"I  c #92770F",
"U  c #8F772D",
"Y  c #B67837",
"T  c #A27C0E",
"R  c #C67736",
"E  c #CF7028",
"W  c #8F784F",
"Q  c #A8794A",
"!  c #B3784D",
"~  c #907A65",
"^  c #C07E44",
"/  c #708338",
"(  c #398D6B",
")  c #36AD76",
"_  c #2E8B5A",
"`  c #4B8858",
"'  c #6F8753",
"]  c #539172",
"[  c #719270",
"{  c #4DA672",
"}  c #60A37A",
"|  c #9B8514",
" . c #AB8E12",
".. c #938631",
"X. c #A88C37",
"o. c #AF912E",
"O. c #BBA329",
"+. c #B9A838",
"@. c #C99811",
"#. c #D0A71B",
"$. c #C5AB37",
"%. c #CFAF30",
"&. c #E4B135",
"*. c #D8AB2B",
"=. c #EFC937",
"-. c #918B55",
";. c #A9984A",
":. c #AE9E52",
">. c #AB914E",
",. c #8CA457",
"<. c #B7A658",
"1. c #B4A64E",
"2. c #928E71",
"3. c #AF976E",
"4. c #93AA71",
"5. c #BAB666",
"6. c #AEA872",
"7. c #C58544",
"8. c #C7AC49",
"9. c #CBB457",
"0. c #D7B452",
"q. c #D0B34C",
"w. c #C4B969",
"e. c #C7B67C",
"r. c #CAB97E",
"t. c #C5B476",
"y. c #D0B56D",
"u. c #D6C550",
"i. c #E8C848",
"p. c #FAD54B",
"a. c #EAD659",
"s. c #FDDC54",
"d. c #FDDC5C",
"f. c #F6D658",
"g. c #F3CC4E",
"h. c #FDE45C",
"j. c #FBE357",
"k. c #D8C56C",
"l. c #D8C575",
"z. c #CDCD72",
"x. c #E7CD65",
"c. c #EDD163",
"v. c #EBD56A",
"b. c #FEDB64",
"n. c #FDDD6C",
"m. c #F6D866",
"M. c #E7D478",
"N. c #F7DB75",
"B. c #E9CA74",
"V. c #FEE464",
"C. c #FEE46B",
"Z. c #FCE867",
"A. c #F6E175",
"S. c #FCE576",
"D. c #F5EB73",
"F. c #195995",
"G. c #355C86",
"H. c #285A8C",
"J. c #276689",
"K. c #366489",
"L. c #276698",
"P. c #307593",
"I. c #196DB1",
"U. c #2869A6",
"Y. c #3876AA",
"T. c #2A67B7",
"R. c #2977BB",
"E. c #3777B9",
"W. c #326FAC",
"Q. c #285AA2",
"!. c #485683",
"~. c #4A7090",
"^. c #657C96",
"/. c #437BBA",
"(. c #4772AA",
"). c #1B78CA",
"_. c #1C78D6",
"`. c #1E6FC1",
"'. c #296DC7",
"]. c #237ACB",
"[. c #2977C7",
"{. c #3878C7",
"}. c #2877D5",
"|. c #3477D5",
" X c #2F6DD3",
".X c #3076E3",
"XX c #4576C4",
"oX c #827C8C",
"OX c #318197",
"+X c #3BA888",
"@X c #3D82B9",
"#X c #4B938D",
"$X c #7B9798",
"%X c #74918B",
"&X c #50A48C",
"*X c #69A294",
"=X c #4586B8",
"-X c #548AAF",
";X c #7094A7",
":X c #5AA4A8",
">X c #1E81D4",
",X c #2982D6",
"<X c #3085CB",
"1X c #3681E6",
"2X c #488BD0",
"3X c #438BE7",
"4X c #989C87",
"5X c #8B9991",
"6X c #8EA68C",
"7X c #A7A886",
"8X c #B5AE8F",
"9X c #8499A2",
"0X c #AAAFA4",
"qX c #9B9E95",
"wX c #C9BA85",
"eX c #CEBE89",
"rX c #D4C589",
"tX c #D4C587",
"yX c #D9CC93",
"uX c #D4CD94",
"iX c #E9D789",
"pX c #E1CE93",
"aX c #E0CE9C",
"sX c #E3D095",
"dX c #E7D996",
"fX c #F6DD96",
"gX c #E8D186",
"hX c #FDE48B",
"jX c #FFEB8C",
"kX c #FBE887",
"lX c #FFEC94",
"zX c #FBE59C",
"xX c #FEEB9D",
"cX c #F6E597",
"vX c #FEF29D",
"bX c #FCF396",
"nX c #F2E890",
"mX c #CACDA8",
"MX c #EEDBA8",
"NX c #FCE6A3",
"BX c #FEEBA3",
"VX c #FEECAA",
"CX c #F6EAA9",
"ZX c #FFF3A4",
"AX c #FFF2AB",
"SX c #FFFBA9",
"DX c #FEECB1",
"FX c #F6ECB8",
"GX c #FDF2B3",
"HX c #F9F7B8",
"JX c #EAE9AF",
"KX c #F4EDC8",
"LX c #EBF6CB",
"PX c #F5F6C7",
"IX c #F4F7D3",
"UX c #D1E3C3",
/* pixels */
"; > - - - - - > & 2 & - - & > - 7 = & > . 7 o e z x H.U.I.]..X.X|.{.}.`.R.F.x z 0 0 . 7 : . 1 * - > - - - - - - - - - - - - ; ; ",
"; > - - - - - > * - & - - - > - = = ; ; 8 8 e v D ~./.<X[.,X1X|.|.|.,X}.<XE.~.D Z 0 = . 3 ; & 1 - > - - - - - > - - - - - - ; ; ",
"> - - - - - - - - - & - - & > > - - 3 ; - = e D W.{.<X}.].]._.).].,X_._.,X|.XX~.Z 0   . > , & - > > & & - - - - - - - - - - - * ",
"- - - - - - - - - - - - & & > > # 9 < $ 9 h ' v Y.|.}.}.}.].).).)._.)._._.'.{.G.i -.a * * - - - > > - - - - - - - - - - - - - - ",
"- - - - > > - - - - - - - * 1 1 1 % t I 0.n.u.g K. X.X.X|.[.}.,X).,X).,X,X{.W.c S A.c.$.d < * 1 - - - - - & & - - > > > - - * * ",
"- - - > > > - - - - - & - 1 & * % d 0.f.h.j.Z./ x T.|.}.'.[.].).].,X).R.].{.G.v w.D.s.h.f.o.t $ - & - - > & - - - - > > * - * * ",
"- - - > > - - - - - > & - - & y ..+.u.m.d.p.h.w.v K.R.}.`.[.R.R.[.[.I.I.I.U.v S M.m.V.V.i.q.+.s 9 - - - > > - - - - - > > - * * ",
"- - > > - - - = & > > ; 1 - 9 f a.a.$.C.b.Z.d.S.S m L.[.[.R.R.E.{.T.R.<XR.J.i ,.jXd.b.S.a.$.Z.u.t 9 - - > > - - - - - - - - * * ",
"* * > > - - - - - - > > 1 1 X.+. . .p.d.b.C.d.C.5.e ~.W.E.E.W.(.Q.Q./.U.P.B j M.C.b.b.b.Z.%. .| +.f & * 4 ; > & - - - - - - * * ",
"; ; > - - - = - - & > $ $ ;.N.Z. . .g.s.p.g.b.x...g c N G.M M D !.!.M M B i a 1.m.C.d.b.i.i.P $.S.B.f   $ 4 # 2 - - - - - - ; ; ",
"; > > - - - = - & * * * U M.C.f.Z.%.@.g.s.d.o.f >.8X2.2.4X7X3.W 6.8X0X4XS -.6.U I $.b.s.&. .i.m.m.A.y.d   1 - - - - - - - - * * ",
"; > - - - - - - 1 1 * y M.N.h.j.V.V.&.*.&.s U t.tXwXwXaXaXgX1.o.l.nXyXJXFXsXdXgXy.I  .&. .=.V.C.d.Z.S.9.1 * 1 * - - - - - - > * ",
"> - - - - - - - * * 9 X.8.i.V.j.p.V.C.T a ;.gXz.z.5.sXCXVXxXx.1.D.bXGXGXcXcXSXnXBXlX1.s $.Z.f.Z.h.V.q.8.U *   * - - - - - - - - ",
"- - - - > > ; - 9 $ I N.%.s.h.s.j.f.q.d :.yX5.z.z.nXZXiXzXlXv.O.D.bXCXCXZXnXiXZXcXAXHX<.f u.V.h.s.V.i.u.v.y $ 1 * > > > - - - - ",
"- - - - > , 3 * * * o.%.#.=.p.j.p.i.d -.rXeXy.l.fXxXlXiXBXhXc.%.S.jXNXGXBXfXhXzXDXzXnXSX;.I f.p.s.p.=.#.q.P * * ; 3 3 > - - - - ",
"= = - - > , ; * * a 8. .T *.=.p.d.P f yXwXe.l.fXGXNXxXhXBXlXa.O.S.bXcXBXNXNXAXNXNXVXZXnXSXU o.d.p.=.#.T O.q.t $ ; ; , : > - - - ",
"= = - > > - > * $ U N.b.i.#.@.#.o.a t.eXtXe.fXxXBXBXBXxXxXjXc.$.A.jXxXBXNXNXBXBXBXBXzXAXAXiXs 8.*.@.#.p.h.c.d % - - > > > > = = ",
"= = > > > - - 1 1 X.S.V.V.s.=.&.a U yXeXe.gXBXxXxXBXNXBXxXjXc.$.A.jXxXxXNXVXBXxXBXBXVXNXNXAX;.s q.p.p.h.h.n.U % - - = > , > > - ",
"- - > > > - - * 1 <.C.j.h.h.Z.u.y 5.tXr.r.zXBXBXxXBXNXBXxXjXc.$.A.jXxXxXVXVXBXxXxXxXAXNXNXVXiXd a.Z.h.j.j.C.>.* & - - > * ; < < ",
"- - > ; > - * 1 1 9.Z.h.Z.a.Z.+.f yXt.r.pXVXzXBXxXBXNXBXxXjXc.$.A.jXxXxXVXVXBXxXcXBXNXNXGXzXBX..$.h.f.h.j.Z.;.& & = > > - 1 < < ",
"= = > ; > * < < t 0.f.s.C.n.C.o.U yXwXeXfXAXxXxXxXBXNXBXxXjXc.$.A.jXxXxXNXVXBXxXxXZXBXzXVXNXZX+.O.h.V.V.s.d.1.1 & & = = = - * * ",
"= = > ; > < < < 9 9.n.f.N.N.N.X.;.tXwXrXVXVXBXxXxXBXNXBXxXjXc.$.A.jXxXxXNXNXxXxXZXzXVXVXNXNXZX8.$.m.N.m.m.A.<.- & & - = = - - * ",
"= - > ; * * * - 8 -.z.5.5.<.<.U 5.tXt.rXGXNXxXBXxXBXNXBXxXjXc.$.A.jXxXxXNXNXBXBXBXcXVXVXVXcXZXk...1.5.w.w.5.-.. & & * * * * ; ; ",
"= - > ; * - : + Z F A v F S j a 3.yXe.pXGXNXBXBXxXBXNXBXxXjXc.$.A.jXxXxXNXNXBXBXxXZXNXgXVXzXZXtXj S K F A F K z + , - * * * > - ",
"= & 1 * * > + c -X=X@X=X=X(.;XZ 6.tXr.pXDXNXBXBXBXBXVXBXxXjXc.$.A.jXxXxXNXNXBXBXxXxXNXNXNXBXZXuXG -X=X=X=X=X2X/.l O . - - = 7 X ",
"- - 1 * * X q N E.[._.,X|.T.(.c 7XrXr.pXDXNXBXBXBXBXBXBXxXjXc.$.A.jXxXxXNXBXxXxXxXBXNXNXVXBXAXmXG.'.'.}.,X`. XXXk O . - - = 5 5 ",
"> * 1 * - X q N {.].>X_.].E.(.v 6.rXr.pXDXNXBXxXBXBXNXBXxXjXc.$.A.jXlXxXNXBXxXxXxXBXNXVXVXBXAXmX~.{.[.].].[.|.XXk + & * ; > = 7 ",
"> & * * - X q N E.[.].].<X@X~.v 6.rXr.pXDXNXBXxXBXBXNXBXxXjXc.$.A.jXxXxXBXBXxXxXxXBXBXVXVXNXAXmXK.E.{.R.R.R.{.(.k + . * ; > & = ",
"* - * * - X q k (.W.U.U.W.L.K.v 6.rXr.pXVXNXBXxXBXBXNXBXxXjXc.$.A.kXlXxXNXNXxXxXxXBXBXVXVXNXZXmXV L.U.U.L.L.W.(.l O o > - - & - ",
"- - & > - = + w z D B m m m A i 6.rXwXpXDXNXBXxXBXxXNXxXxXjXc.$.A.jXlXxXNXNXxXxXxXBXVXVXVXNXAXuXv J B B b b D l q O o = - - & * ",
"= = , > - - - - 9 3.tXl.l.l.z.f <.rXr.pXDXNXBXxXBXxXNXzXxXjXc.$.A.jXxXxXNXNXxXxXxXBXVXVXVXNXAXl.U k.l.l.k.k.3.- & & > - - * * 4 ",
"= = > > - * 1 < r 0.C.Z.S.C.C.I <.rXr.pXDXNXBXxXBXBXBXNXxXlXc.$.S.jXlXxXBXBXxXxXxXBXNXNXVXNXZXk. .s.b.V.h.Z.0.< $ - > & - 1 * 4 ",
"> - - - - * < < r 0.C.h.m.m.V.I :.rXe.sXVXVXxXxXxXBXNXVXZXjXc.$.S.jXjXlXZXcXzXcXxXBXBXBXNXBXAXk.| d.V.f.d.Z.8.1 $ * ; * - * > * ",
"- - - - - - ; < t q.V.h.C.C.V.I :.rXe.sXVXBXxXxXxXAXVXNXzXhXm.%.S.A.bXlXnXSXxXBXBXBXBXBXBXBXZXk.| d.V.d.V.C.8.* $ ; ; ; - * - - ",
"- - - - = - > * 1 0.V.s.V.C.V.I :.rXe.sXVXBXxXxXZXBXNXNXxXlXc.o.x.M.jXlXZXiXzXZXBXBXBXxXBXBXAXk. .j.j.s.s.d.q.1 & * ; > - - - - ",
"- - - = = - > * t 0.d.p.d.i.f.| :.rXe.sXVXBXxXxXBXNXNXVXBXlXc.| P o...k.vXSXxXBXBXBXBXBXBXBXAXk.| s.s.h.p.i.q.1 & - : > - - - - ",
"- - - = = = ; * 1 o.*.*.*. .#.P :.rXe.sXVXBXxXxXxXBXVXVXcXjXm.O.N.N.N.1.l.xXZXxXVXZXBXBXBXNXVXl.I &.*.*.@.@.o.* $ - : : - - - - ",
"* - - = = = > * t 0.f.p.d.g.f.I :.rXe.sXVXBXxXxXxXBXVXNXzXjXn.$.N.jXbXlXw.iXZXZXNXBXBXBXNXNXAXl.| f.f.d.d.f.8.1 & - : : = - * - ",
"< * - = 7 5 = - 1 9.Z.h.Z.S.D.P :.rXe.sXVXBXxXxXxXBXNXNXBXjXc.O.S.kXkXlXiXw.iXgXfXcXzXNXNXBXAXl.| V.h.j.h.C.8.* & & : : - - * * ",
"< * - = = 7 = - 9 9.C.V.m.c.A.I :.rXe.sXVXBXxXxXzXAXVXNXxXkXc.$.N.kXjXlXvXiXw.cXzXBXBXBXVXNXAXl.| Z.Z.a.j.C.<.- & = = = - - * * ",
"< - ; , 8 X - * 9 y.n.b.C.b.b.I :.tXr.sXVXzXBXxXxXBXNXNXxXhXc.$.S.kXbXhXM.w.SXNXBXNXBXNXNXNXAXl.T n.V.C.b.N.y.1 & - - & - - - * ",
"; > 3 - 8 = - & 1 y.kXn.b.b.C.T :.tXr.sXVXNXBXxXBXBXNXNXZXjXc.O.N.jXkXhX;.fXBXNXBXNXBXNXBXBXAXl.o.b.b.b.N.hXt.- & & - - - > & > ",
"& > > & - - - & 9 6.iXM.v.c.c.I <.tXwXsXVXBXBXxXBXBXNXVXxXhXm.$.N.N.N...w.HXzXAXBXNXBXBXNXNXAXl.| c.a.v.M.iX6.- . & - * - > - > ",
"& - > & - = X 0 g K ' ' -.' -.a 3.rXwXsXVXBXBXxXBXBXVXVXcXhXN.$.v.X.U 9.SXcXzXNXNXNXBXBXNXBXAXtXd -.../ S [ K e X . - * * > - : ",
"* * 4 ; - = + z -X-XY.OX-X#X-XD 6.rXwXpXVXBXBXxXBXBXNXNXxXbXc.| s o.iXZXzXSXBXBXNXNXBXBXBXBXAXuXJ -X#XOXP.=X-X(.w @ & * * * > > ",
"> - ; 1 * = q N E.[.].>X<X[.E.n 7XrXr.pXVXBXBXxXxXBXVXNXxXbXc. .x.bXvXcXxXxXAXNXNXBXBXBXBXxXAXmXG.R.R.<X>X,X[.E.k O . * * 1 - - ",
"> & * - - = O M XX|.}.).].[.{.G.7XrXr.pXVXBXBXxXxXAXVXNXzXjXm.$.jXN.lXZXzXAXNXBXNXNXBXxXxXzXBXmXK.{.R.[.)._.'.E.k O & 1 * > > : ",
"= > > - * 8 + N XX'.].].].R.E.M 7XrXwXyXGXCXVXCXVXDXMXCXAXxXv.1.gXSXNXcXGXJXCXCXVXVXVXVXCXCXGXmXM E.E.[.].,X[./.k O & 1 - - : : ",
"& - & > 9 & 3 c E.'.'.'.[.R.Y.M 0XmXmXmXLXLXKXKXKXKXIXLXPXJXdX5.CXHXPXLXLXLXFXHXFXFXIXKXIXLXLXUXM (.U.W.R.T.R.Y.l + . - - - - - ",
"& - - & * - : w H.U.Q.F.F.F.J.x K [ [ %X6X6X4X4X7XqX6X5X6X4.,.h 2.4.4X6X6X6X6X6X4X4X4X5X5X6X6X%XN K.H.J.L.F.L.n q o # - - = - - ",
"- > > - - - > + c ^.^.~.J.J.K.x v A B V H F S S S F H V J J S j S S L F H H V J H H F K L K H J N ~.!.!.G.H.M w   $ * < * - = = ",
"= & 1 < - - - . Z 0XqX5X#X#X#XV ] ] ( #X*X%X2.-.2.2.*X:X:X&X6X7X3.3.2.2.%X*X:X:X*X%X2.~ 2.4X$X%XG oXoX^.~.J J w   - 1 * * * - = ",
": & < 1 - - 8 & u 8X3.4.*X&X&Xb A ` _ ( } 2.! R Y -.} &X+X{ 4.w.7.R Y >.-.[ { &X} [ Q Y ^ >.4.' h ! ! -.' ` F 6 @ X = > ; 4 2 * ",
"8 & < 1 - - - - y 3.3.2.] { } ` p ` _ ( [ -.R E E U ` ) ) { ,.8.R E E Y ..' { ) { ' Y E E Y ,./ f Y R Q j A A 6 @ X X X ; 4 2 * ",
"= & < < & - - & u 3.3.2.] &X} ` A ` _ ] [ -.R E R U ` ) ) { 4.9.7.R E Y ..' ) ) { ' ! E R X.,.' f 7.Y Q S A F 6 @ X X = - 2 - - ",
"= - * * - - = . g qX4X5X] #X#XV ` ` V ( *X2.! ! Q W ] +X+X{ 4.6.3.Q Q Q ' ] &X+X&X[ ~ ! ! -.[ ` j -.W ~ F V H w @ X = 7 * - & = ",
"- - - 2 & > : + c ^.^.J J.C V C B V J.J.~.^.G L G ~.P.OXOXP.F Z K G L L H ~.P.P.P.~.~.G L G ~.V m D D !.M n n w @ . - & 1 * & - ",
"- - & > & > + w (./.(.L.Y.@XY.n V ^.^.;X;X;X9X9XB ;X;X:X;X$X[ K %X$X5X5X9X$X;X;X;X;X;X$X9X$X;X;XK.(.Y./.{.{./.G.w # * * * ; ; ; ",
"- * = = & > 3 c 2X3X{.{.3X2X2XK.0XuXeXJXPXPXIXmX4.UXIXLXPXGXgX5.JXFXHXFXFXFXFXKXPXIXPXJXPXFXKXmX~.2X<X1X3X3X3X=Xz o & - > ; 4 ; ",
"* - = = - > + M [._.}.}.}.'.E.N 2.y.y.l.BXZXdX:.dXGXVXzXlXkXa.$.nXbXbXnXlXlXxXzXhXzXxXiXcXcXZXuXm E.R.`. X X}.E.N O & - = = 4 ; ",
"* - = X - > O N R._.}.}. X'./.N 7XgXl.M.lXl.w.iXAXVXfXhXhXS.m.$.A.bXbXnXcXvXxXxXZXzXxXhXnXnXSXmXm Y.R.[.|. X}.{.N O & - 5 X 8 - ",
"1 - = X = > + M E.].[.[.'.T./.m 6.<.>...<.l.cXVXNXzXNXBXjXkXm.O.N.jXvXvXZXCXCXAXxXhXxXhXbXSXcX7XM Y.E.R.|. X'./.x O & * 5 X 7 - ",
"4 - 7 X - 0 + m Y.R.E.E.'.U.(.m S h -.pXGXAXAXVXVXGXDXVXzXlXA.8.N.jXlXvXAXVXDXGXzXxXvXlXbXM.>.S D Y.E.R.[.[.T.(.x O % 2 : X - * ",
"; & 8 = & > + c L.F.F.U.T.F.J.x i 8XwXwXdXpXyXdXsXdXpXpXfXM.9.o.c.B.B.B.sXsXyXaXdXM.M.M.k.X.U mXN H.L.F.I.I.F.L.x O % < 3 : 4 < "
};
