/* XPM */
static char *_af81bd83c4a4bfcfdbe957218123654lOO8ynXXmUBOkplH[] = {
/* columns rows colors chars-per-pixel */
"64 64 256 2 ",
"   c #010102",
".  c #0A0201",
"X  c #010900",
"o  c #02010A",
"O  c #080209",
"+  c #180701",
"@  c #0B1807",
"#  c #1D1402",
"$  c #1E1C02",
"%  c #1A190A",
"&  c #040816",
"*  c #161717",
"=  c #0E1015",
"-  c #230C00",
";  c #290B04",
":  c #251501",
">  c #2B1501",
",  c #241B02",
"<  c #2A1A01",
"1  c #2A160A",
"2  c #241A0A",
"3  c #2A1A09",
"4  c #25150B",
"5  c #321501",
"6  c #321B01",
"7  c #351A07",
"8  c #271714",
"9  c #35150D",
"0  c #18290F",
"q  c #292105",
"w  c #362200",
"e  c #3A2603",
"r  c #33310F",
"t  c #101728",
"y  c #231B26",
"u  c #152631",
"i  c #27332B",
"p  c #452B01",
"a  c #4C3E00",
"s  c #493803",
"d  c #543B00",
"f  c #4C3013",
"g  c #45372A",
"h  c #3A4912",
"j  c #364B33",
"k  c #57470B",
"l  c #685301",
"z  c #715712",
"x  c #7C6615",
"c  c #47512F",
"v  c #725633",
"b  c #4E6B36",
"n  c #6F6935",
"m  c #193552",
"M  c #273A5A",
"N  c #2E3548",
"B  c #253860",
"V  c #384757",
"C  c #2C4D54",
"Z  c #2B625F",
"A  c #1B4E73",
"S  c #2A4968",
"D  c #334B69",
"F  c #295866",
"G  c #375868",
"H  c #375979",
"J  c #2B5374",
"K  c #356469",
"L  c #316C72",
"P  c #1B4050",
"I  c #465448",
"U  c #527151",
"Y  c #6A7252",
"T  c #4B5B6C",
"R  c #517070",
"E  c #68706E",
"W  c #68555B",
"Q  c #9A7908",
"!  c #9A7C15",
"~  c #8B6D12",
"^  c #A37D1B",
"/  c #8E772A",
"(  c #B2762D",
")  c #804D00",
"_  c #CA7430",
"`  c #B07851",
"'  c #8F7765",
"]  c #8C6E50",
"[  c #C27D4E",
"{  c #389756",
"}  c #368A79",
"|  c #548450",
" . c #54956C",
".. c #4CA872",
"X. c #6C8964",
"o. c #98840E",
"O. c #AD8D13",
"+. c #998C3B",
"@. c #B89529",
"#. c #AE9133",
"$. c #B5A32D",
"%. c #B7A91A",
"&. c #D3A31B",
"*. c #C7952B",
"=. c #CAA72A",
"-. c #D5AB31",
";. c #D3B335",
":. c #E3B838",
">. c #E6B62B",
",. c #C6920E",
"<. c #F7CA3B",
"1. c #EACA39",
"2. c #8C914C",
"3. c #AB9749",
"4. c #B19C4A",
"5. c #BE9843",
"6. c #AC9854",
"7. c #B58F50",
"8. c #BAA75A",
"9. c #B0A74E",
"0. c #9B9C7A",
"q. c #8F906E",
"w. c #A59D7D",
"e. c #AD9669",
"r. c #B7AC66",
"t. c #B2AF6A",
"y. c #98A372",
"u. c #C9B457",
"i. c #D7B856",
"p. c #CAAD4C",
"a. c #CAB667",
"s. c #D3B964",
"d. c #C5BA79",
"f. c #C5B878",
"g. c #CDAF6A",
"h. c #D6A04B",
"j. c #DCC253",
"k. c #E8C448",
"l. c #F5CA4A",
"z. c #FAD74A",
"x. c #EBC955",
"c. c #F5CA55",
"v. c #EBD758",
"b. c #FCDC55",
"n. c #FDDD5C",
"m. c #F8D857",
"M. c #E7D746",
"N. c #FEE354",
"B. c #FDE35B",
"V. c #F9E659",
"C. c #F6E353",
"Z. c #D8CA69",
"A. c #CAC379",
"S. c #D8C776",
"D. c #D1CC6D",
"F. c #FDDC63",
"G. c #FBD966",
"H. c #E2CB78",
"J. c #FADD76",
"K. c #E7CD6C",
"L. c #FEE363",
"P. c #FEEB62",
"I. c #FEE36C",
"U. c #FFEA6A",
"Y. c #F4E466",
"T. c #FDE573",
"R. c #FEEB73",
"E. c #FFEB7C",
"W. c #FAE579",
"Q. c #FCF272",
"!. c #98C87C",
"~. c #295987",
"^. c #325990",
"/. c #286699",
"(. c #376898",
"). c #346E8D",
"_. c #1A67B0",
"`. c #2869A8",
"'. c #2975AC",
"]. c #3878AA",
"[. c #2869B8",
"{. c #366DB6",
"}. c #2877BB",
"|. c #3878B7",
" X c #396AA5",
".X c #215BAB",
"XX c #496F8F",
"oX c #6D788E",
"OX c #4575B8",
"+X c #4B72AB",
"@X c #485F93",
"#X c #1C75C6",
"$X c #1D73CD",
"%X c #2B73C3",
"&X c #2778C8",
"*X c #3578C8",
"=X c #237AD3",
"-X c #2976D8",
";X c #3677D6",
":X c #2D6DCB",
">X c #2F7DE4",
",X c #4379C3",
"<X c #487ED2",
"1X c #398892",
"2X c #3383B2",
"3X c #3EA5A1",
"4X c #508C90",
"5X c #708592",
"6X c #4FA68F",
"7X c #5689B5",
"8X c #4C8AAC",
"9X c #6C9D9C",
"0X c #2581C9",
"qX c #3182D4",
"wX c #3183E1",
"eX c #5290D2",
"rX c #4A8EE5",
"tX c #96948A",
"yX c #A69D83",
"uX c #90AB8E",
"iX c #B1B492",
"pX c #A1ADA7",
"aX c #CFBE82",
"sX c #99C58D",
"dX c #AFC3A4",
"fX c #D5C68C",
"gX c #D8C886",
"hX c #DCD086",
"jX c #DCD18B",
"kX c #D3CC8F",
"lX c #EAD787",
"zX c #F4DE8B",
"xX c #EAD995",
"cX c #FEE582",
"vX c #FFE982",
"bX c #F3E18B",
"nX c #FBE88B",
"mX c #FBE694",
"MX c #FEEC9A",
"NX c #F9E796",
"BX c #FEF29D",
"VX c #FCF196",
"CX c #F2EB90",
"ZX c #D4D3A8",
"AX c #CFD0AF",
"SX c #FEEBA3",
"DX c #FFEDA9",
"FX c #F7E5A4",
"GX c #FEF1A4",
"HX c #FFF4AB",
"JX c #F7F6A8",
"KX c #FEF8B6",
"LX c #EAEFB2",
"PX c #E0E1A6",
"IX c #F1EEC7",
"UX c #D7D9C4",
/* pixels */
"8 1 < < < < < < : 3 < < < : 4 < < < : 6 : , , % N M J /._.$X%X{.*X%X[.`..XA P i $ $ , 3 3 : < < < < < < < 3 3 1 < < < < < < 8 8 ",
"1 3 < < < < < < < : : < < 3 3 3 : < > > < < r I T ^.(.|.qXwXqXqX;X;XqXqX*X|.XXG c r < - 3 < , # < < < < < 3 3 1 < < < < < < 1 8 ",
"3 < < < < < < < 3 : : < < < 1 3 < 3 1 9 6 : i T +X*X*X-X>X-X#X#X-X-X&X0X=X;X<X@XI q ; 9 9 < 8 % 3 < < < < < < < < < < < < < 1 1 ",
"< < < < < < < < < < < < : : 3 3 - 9 > ; 5 k Y G  X;X-X-X-X=X$X=X=X=X#X=X=X$X;X Xj n f ; 5 6 2 % 4 < < < < < < < < < < < < < < < ",
"< < < < < 3 3 < : < < < : < 7 5 9 ; 5 l @.K.D.c ~.;X-X-X*X*X=X0X0X0X=XwX;X;X:XJ n Z.K.#.d 5 > 3 < < < < < < < < < < 1 3 3 < < < ",
"< < < < 3 < < < : < < : 3 7 < > ; d #.c.R.F.Y.2.F {.*X&X%X&X#X#X&X0X=X=X-X*X^.N 9.Q.F.F.x.^ 7 + 6 < < < < < < < < 3 1 1 1 < < < ",
"< < < < 3 < < < < 3 4 : 7 < : e l $.v.n.m.m.P.9.C ~.'.&X&X=X=X0X0X#X#X[.:X{.G b D.v.v.P.m.;.O.d w < : : < < < < < < 1 1 1 < < < ",
"< < < < < < , , : 3 1 1 7 : 6 l v.M.%.B.L.L.N.W.b G ).}.&X#X%X&X%X_.}.}.*X^.j 2.CXY.P.V.M.=.b.x.e < : < < < < < < < 1 1 1 < < < ",
"< < < < < < , < < # 1 3 > 6 ~ #.$.%.1.B.n.F.B.R.t.j XX`.'.[.:X<X[.[.|.{.OXH c D.W.m.B.B.b.;.-.O.#.l + < < < 3 - < < < 3 1 < > < ",
"1 3 < < < < , < < 3 9 - 5 / K.T.O.O.z.<.n.F.F.K.r.c T ^.(.(.^.^.^.^.+X@X@XV b D.K.R.n.z.z.b.) @.E.s.z - 6 > - e < < < < < < > > ",
"1 < < < < < < < : < > > z s.T.n.I.=.&.<.z.n.p.n 3 . u u u & & & & & & u N y # e +.i.n.z.<.O.-.F.v.E.s.p - 6 : : < < < < < < < < ",
"1 < < < < < < < < < > d s.W.U.m.G.I.&.>.z.Q x q . O   O o   . . X     o &     . z ~ @.c.,.&.L.G.m.I.cX8.p - 6 < < < < < < < < < ",
"3 < < < < < < < > > 6 ~ i.x.P.B.I.I.G.=.l / r.h   O     O O .         X     X . 3.nX#.) -.P.R.R.U.b.k.i.x - > < < < < < < < < 3 ",
"< < < < 3 3 1 < w > l K.;.k.N.B.U.v.K.l +.S.A.r   O . . O               X X X   9.VXSX7.~ v.v.n.b.P.k.p.s.d > < < < < < < < < < ",
"< < < 3 4 4 8 1 > < ! v.=.<.b.z.z.F.l x D.D.r.e . O     O   X   O           O + +.Q.BXHX#.! m.N.z.b.1.=.J.~ + > 1 1 3 < < < < < ",
"< < < 3 3 4 1 > > d $.O.Q >.z.z.n.O.l A.D.u.a.s . . O   .               O O O . 9.R.NXGXMX! =.z.b.<.1.Q @.#.p - > 1 3 3 3 < < < ",
", , , < < < < 5 > z G.m.:.&.O.-.p.d r.A.S.u.H.a . O O                           4.W.BXSXSXH.x i.:.,.&.:.z.J.z + < < 3 3 2 2 , , ",
"< < , , , < < 6 6 / T.B.F.n.1.;.l n fXA.a.S.bXs .                             . 4.vXMXSXHXSX+.x i.k.z.N.N.R./ : : < < 3 2 2 < , ",
"< < < < 3 < < < > 3.U.N.B.P.P.j.d r.fXA.a.lXnXa .                             . 3.nXMXSXSXKXhXl j.P.N.N.C.Y.#.: : < 3 3 3 < < < ",
"< < < < 3 3 < < > p.P.N.N.B.P.;.z gXd.d.S.mXzXk .                             . 4.vXMXSXNXDXHX/ ;.P.N.B.N.P.9.: : 4 3 < < < 6 > ",
"< < < < 3 < < 6 e u.z.<.N.N.N.@./ gXgXd.lXMXbXa .                               4.E.mXSXDXSXGX#.%.N.b.N.z.C.p.6 : : < < < < 5 5 ",
"< < < < 3 3 < 6 > a.Y.z.n.m.n.@.3.aXgXA.NXMXzXa .                               4.E.MXSXDXSXMXu.@.B.F.G.v.Y.u.< : : < < < < 5 > ",
", < < < < < > < : e.H.Z.Z.i.p.#.8.gXf.gXGXmXzXk .                             . 4.vXBXSXSXSXGXH.#.i.Z.S.D.S.e.< - > > > < < < 3 ",
", , < < < < 3 8 N E U b Y Y n k 6.gXd.gXHXbXbXa .                             . 4.vXmXSXSXSXGXhXn n Y Y U Y E i = 4 > 5 6 < < 4 ",
"$ , < < 6 < = V +XeX8X].].7X7XV w.gXf.jXSXmXbXa .                             . 4.vXMXSXDXSXGXZXR 7X8X8X8X2X7X7Xm = : 6 > > < , ",
"% $ < < 6 < * S ,X:X#X0XwX%X{.S w.gXf.jXGXmXbXa .                             . 4.vXMXSXDXSXGXAX^.*X&X&X0X&X&X{.B = : 6 > 3 , $ ",
"* % , < < < * D <X;X=X=X-X:XOXS w.gXf.jXGXmXbXa .                             . 4.vXMXSXDXSXGXZXXX,X*X}.#X&X;XOXB * : 6 > 3 , $ ",
"8 2 < < < , * S OX:X&X&X%X*XOXC w.gXf.jXGXmXbXa .                             . 4.vXMXSXDXSXGXZX@X{.*X&X&X}.%XOXM * # < > 3 , $ ",
"< < < < < $ * M OX{.'.'.}.'.].C 0.gXf.jXGXmXbXa .                             . 4.cXMXSXSXSXGXZX).`.'.'.'.'.|.+Xm = # < > > < < ",
"> > < < < $ * u S H Z Z F C K i e.gXf.jXSXmXbXa .                             . 4.cXMXSXDXSXSXkXC K F F Z F K C u = $ < < < > < ",
"> 5 < < < , , 2 q q.t.8.r.r.a.x 6.gXf.jXSXmXbXa .                             . 4.vXMXSXHXSXGXhX/ 8.r.t.r.t.q.r # # < , : < < 1 ",
"> 6 < < < < < < 6 a.T.L.T.F.F.O.4.gXt.jXSXmXbXa .                             . 4.vXMXSXHXSXSXH.O.F.T.T.R.E.s.6 - : w < : < 3 1 ",
"< < < < < < > 6 6 p.U.B.G.F.L.! 3.fXf.hXGXmXzXa .                             . 3.cXMXNXGXNXSXH.! I.F.G.m.U.p.e - 1 1 1 < < < < ",
"3 3 < < < < > 6 w p.Y.V.I.I.L.Q 3.fXf.hXGXmXzXa .                             . 3.cXnXHXNXGXHXS.! F.L.n.V.L.u.w - 1 1 1 < < < < ",
"1 3 < < < < < < > u.I.B.U.U.N.Q 3.fXf.hXGXmXzXa .                           o   4.W.W.bXBXNXFXlXo.n.B.B.P.L.j.6 : > 1 3 < < < 3 ",
"1 < < < , < < < 6 p.L.b.F.c.z.o.3.fXf.hXGXmXzXa .                           o   l o.#.4.mXHXFXS.O.b.b.n.n.x.i.e : : 3 3 < < > 1 ",
"< < < < < < 3 5 6 #.;.:.:.*.=.Q 6.fXf.hXGXmXzXa .                             . 4.j.s.a.8.bXKXH.Q :.:.:.-.@.5.5 > : 3 , , < 3 1 ",
"< < < 3 , 3 1 > e p.l.<.l.k.x.! 6.fXf.hXGXmXzXa .               o             . 4.VXBXKXS.u.MXH.Q l.k.c.c.j.p.6 : : , , , < 3 1 ",
"5 5 < < , , < < 6 u.U.N.B.U.U.o.6.fXf.hXGXmXzXa .                 o           . 4.vXnXmXHXd.lXZ.o.V.C.B.U.E.u.6 : , , , , < > 5 ",
"5 5 > < , , , < w p.I.B.n.m.V.o.3.fXf.hXGXmXzXa .                             . 4.cXVXmXSXHXS.#.o.P.B.b.m.R.u.w : , , , < < > 5 ",
"5 6 3 , $ , < > 5 g.J.I.I.F.F.! 6.fXf.hXSXmXbXa .                             . 4.E.VXmXBXlXf.lX^ F.L.B.L.J.s.6 : < 4 , < < < < ",
"> < 3 3 , < < > 5 g.J.G.n.G.I.! 6.fXd.hXSXmXbXa .                         o o . 4.E.cXBXzX+.KXH.^ G.n.m.G.J.g.w - < 3 3 3 < < < ",
"< < 4 3 < < < < 6 g.W.I.F.G.J.^ 6.fXd.hXGXmXbXa .                           o   3.J.cXzX3.hXHXH.^ G.L.m.W.bXf.w # : 3 3 3 4 : < ",
"< < 1 1 < , $ 2 i Y 2.2.2.2.6.z e.fXf.hXGXmXbXa .                               8.J.9./ 8.HXSXhXz 6.2.+.2.q.X.0 % # < 3 3 < : , ",
"< < 3 < , $ * N +X7XXX).4X4X8XK 0.fXf.hXSXmXbXa .               o o           . / ~ 3.jXKXxXKXZXR 4X4X).1X8X7XXXu = 4 > > 6 < < ",
"< : 6 < , $ t S OX;X&X&X0X}.*XA tXfXf.hXSXmXbXa .               o o           . x Z.MXSXSXSXSXAXH {.}.2X0X#X*XOXm = : < > 6 < < ",
", : 3 < < , t J OX*X*X&X%X}.*X^.tXfXd.hXSXmXzXa .                           o   8.vXMXMXSXFXKXAX^.|.|.&X=X=X-X,XM = : > > 7 , % ",
"< : < : < , * D ,X[.}.%X*X*X|.J tXfXd.jXSXNXbXa .                           o   6.J.BXMXFXKXFXAXH +X|.}.-X>X-X|.M @ : < : q $ % ",
": q < < 6 : 8 V OX[.}.[.*X}.].G yXkXfXZXKXKXxXs . . O o o           o o O     X 6.VXJXKXIXIXIXUXT +X'.}.;X:X%X].m * : : q $ , 3 ",
": 3 < < 6 < 8 u ~.`././..X.X).C q.0.q.uXdXiXt.r . . O o o X         o O       X ] d.iXiXdXdXdXpXG )./.`..X.X`.~.u * - < , $ 3 3 ",
", < : < < < 2 * M +X@X@X/./.).S V V Z L } L U @                         .     X c Y W E T R R K F ).).^.~.~.J m = ; 5 5 < < < 3 ",
", , < 6 < 3 3 # V pXtX9X8X8X8XR W E 4X1X3X6X9Xj                         .       q.e.' q.tX5X9X4XR oXoXoXXXR R u + > 5 5 > < < < ",
", : > 5 : q q # f iXw.uX6X6X6XR v ' R } 6X..sXj                                 e.7._ [ 7.q.6X .n ` ` e.X.| X.0 @ % 2 4 3 3 3 : ",
"2 , 5 5 : , q : p e.e.y. .....U v ] U { ..{ sXh                             X   7._ _ _ ( /  .| x _ _ ` n b | 0 @ @ % % 1 3 3 < ",
", < 5 5 : < , : f e.e.y. .....| v n b { ..{ !.h           O O               o . 7.*._ _ _ /  .| x 5.( ` Y b | 0 @ % % , < > < < ",
"< : > 5 < , , , g tXyX0. .6X..U v n | { .. .sXh             O O O o o o o O o . e.7.[ ` ` ]  . .n e.] ' X.K R u % % 2 < 6 > < < ",
"< < > 7 < 3 3 % N oX5XoX).).).K V T L L 1X4X .i             O O o o     O O o   W E E T oXXX1XL K R T @XH J F u = ; 6 > 6 > < < ",
"6 6 < 6 : < 8 u ^.+X+X(.`.`./.A V T T XX5XXXE i   O         o o         . .     I X.5XoXoX5X4XXXJ (. X{.`.`. XS y 4 > > 6 < < < ",
"5 6 < q < 3 y M eXrXeX<XrXrXeX).I iXAXAXIXIXPXf . .       o o           . . . . t.PXLXIXIXIXLXAXXXeXeXrXrXrXrX7XM * 4 , , < 3 4 ",
"5 6 , , < 3 y D |.#X%X:X-X%X|.F y.gXf.xXKXFXxXk . .   o o o               . . . 9.CXJXJXSXSXSXZXG ].}.&X-X$X#X|.D = % , , , 3 4 ",
"5 6 , , < 4 * D '.#X&X*X%X%X8XF 0.kXf.A.NXmXzXp .   o o o o                     6.CXJXFXNXMXJXZXK 2X}.=X>X-X&X*XD & # < , , < < ",
"9 > $ , < 3 * D '.&X%X&X%X}.|.F 0.fXd.hXMXmXnXk .   o o o       . .             6.mXBXBXGXGXHXAXK ].}.&X>X-X%X|.D & 4 < $ q < < ",
"1 : , $ < 2 * D ].}.}.%X:X[.|.J w.aXgXjXGXmXlXa .     o O .                     6.zXnXnXMXMXDXAXH ].|.%X=X=X[.].S & 4 : , q 4 1 ",
"9 : , $ # 2 * S `._.}.[.;X.X{.S yXaXA.kXSXGXbXa .       . .                   . e.zXW.E.nXmXDXZXG /.{.[.#X#X[. XS & 4 : , q 4 8 "
};
